<svg width="60" height="60" viewBox="0 0 60 60" fill="none" xmlns="http://www.w3.org/2000/svg">
<g clip-path="url(#clip0_1301_1374)">
<path fill-rule="evenodd" clip-rule="evenodd" d="M17.9128 30.4441V33.7176L14.8858 32.0835L17.9128 30.4441ZM41.763 30.4441L44.7917 32.0835L41.763 33.7176V30.4441ZM21.7487 12.1392H37.9315C39.4184 12.1392 40.623 13.3889 40.623 14.9912V45.008C40.623 46.6111 39.4193 47.8599 37.9315 47.8599H21.7487C20.2618 47.8599 19.0581 46.6111 19.0581 45.008V14.9912C19.0581 13.3889 20.2618 12.1392 21.7487 12.1392ZM21.7487 11C19.6192 11 17.9119 12.8047 17.9119 14.9912V29.1467L13.4175 31.5806C13.021 31.7981 13.021 32.3663 13.4175 32.5829L17.9119 35.0106V45.008C17.9119 47.1953 19.6192 48.9991 21.7487 48.9991H37.9315C40.061 48.9991 41.763 47.1944 41.763 45.008V35.0124L46.261 32.5829C46.6592 32.3654 46.6592 31.7972 46.261 31.5806L41.763 29.1476V14.9912C41.763 12.8038 40.061 11 37.9315 11H21.7487Z" fill="white"/>
<path d="M27.3769 13.9413C26.6158 13.9766 26.6689 15.0805 27.4309 15.0805H32.2484C33.0397 15.0805 33.037 13.9103 32.2484 13.9413H27.3761H27.3769Z" fill="white"/>
<path d="M22.7018 36.0857C22.222 36.0776 22.0607 36.6923 22.4869 36.9033L29.619 40.5881C29.7522 40.6573 29.9157 40.6573 30.0516 40.5881L37.1852 36.9033C37.417 36.7958 37.5086 36.523 37.3853 36.3061C37.262 36.0897 36.9738 36.0158 36.7526 36.1408L29.8353 39.7121L22.9188 36.1408C22.8512 36.1052 22.7772 36.0857 22.7018 36.0857Z" fill="white" stroke="white" stroke-width="0.304"/>
<path fill-rule="evenodd" clip-rule="evenodd" d="M29.4358 43.8351C29.8261 43.6133 30.3111 43.7414 30.5377 44.1312C30.766 44.5245 30.6342 45.0061 30.2438 45.2315C29.8535 45.456 29.3711 45.3252 29.1454 44.9328C28.9171 44.543 29.0446 44.0614 29.4358 43.836V43.8351ZM28.8613 42.8488C27.9355 43.38 27.6152 44.5792 28.1506 45.5037C28.6888 46.4281 29.8889 46.7525 30.8174 46.2204C31.7432 45.6857 32.0627 44.4873 31.5245 43.5629C30.99 42.6385 29.7862 42.3132 28.8613 42.8488Z" fill="white"/>
<path d="M34.637 30.2123C34.5013 27.7 31.4807 26.558 31.1916 26.4407C31.1798 26.4346 31.1798 26.4222 31.1857 26.4099L34.3007 23.1383V22.7865C34.3007 22.7309 34.2535 22.6815 34.2004 22.6815H28.46V20.7125V20.1199L26.342 20.5828V20.9162H26.46C26.46 20.9162 26.9792 20.9162 26.9792 21.4594V22.6754H25.339C25.3095 22.6754 25.28 22.7062 25.28 22.7371V23.5087H26.9851V27.7C26.9851 29.0147 27.7933 29.9283 29.2093 29.8049C29.5101 29.7802 29.7874 29.6567 30.0234 29.4962C30.1296 29.4221 30.1945 29.3049 30.1945 29.1691V28.7555C29.7343 29.0765 29.345 29.058 29.345 29.058C28.4482 29.058 28.4659 27.8666 28.4659 27.8666V23.5087H32.5957L29.6222 26.6444C29.6163 27.058 29.6104 27.379 29.6104 27.3852C29.6104 27.3975 29.6163 27.4037 29.6281 27.4037C32.3538 27.8851 33.0913 29.7308 33.0913 30.2678C33.0913 30.2678 33.3863 32.8789 30.8907 33.0579C30.8907 33.0579 29.2565 33.1319 28.9674 32.4468C28.9556 32.4221 28.9674 32.3974 28.991 32.385C29.2624 32.2554 29.4452 32.0023 29.4452 31.6628C29.4452 31.1567 29.1503 30.7431 28.5308 30.7431C28.0293 30.7431 27.6163 31.1567 27.6163 31.6628C27.6163 31.6628 27.3803 33.8603 30.8848 33.7986C34.8848 33.7245 34.637 30.2123 34.637 30.2123Z" fill="white"/>
</g>
<circle cx="30" cy="30" r="29.4" stroke="white" stroke-width="1.2"/>
<defs>
<clipPath id="clip0_1301_1374">
<rect width="33.44" height="38" fill="white" transform="translate(13.1201 11)"/>
</clipPath>
</defs>
</svg>
