<svg width="82" height="70" viewBox="0 0 82 70" fill="none" xmlns="http://www.w3.org/2000/svg">
<path d="M4.83891 20.6539V27.626H3.9291V20.6539H4.83891ZM7.07992 20.6539V21.4105H1.69287V20.6539H7.07992Z" fill="white"/>
<path d="M10.9251 21.2717L8.61703 27.626H7.6737L10.3313 20.6539H10.9394L10.9251 21.2717ZM12.8596 27.626L10.5468 21.2717L10.5324 20.6539H11.1406L13.8078 27.626H12.8596ZM12.7399 25.045V25.8016H8.82294V25.045H12.7399Z" fill="white"/>
<path d="M17.9259 24.8918H16.0631V24.14H17.9259C18.2866 24.14 18.5787 24.0825 18.8022 23.9676C19.0256 23.8526 19.1884 23.693 19.2906 23.4887C19.3959 23.2844 19.4486 23.0514 19.4486 22.7896C19.4486 22.5502 19.3959 22.3251 19.2906 22.1144C19.1884 21.9037 19.0256 21.7345 18.8022 21.6068C18.5787 21.476 18.2866 21.4105 17.9259 21.4105H16.2786V27.626H15.3544V20.6539H17.9259C18.4526 20.6539 18.8979 20.7449 19.2618 20.9269C19.6258 21.1088 19.9019 21.361 20.0903 21.6835C20.2786 22.0027 20.3728 22.3682 20.3728 22.78C20.3728 23.227 20.2786 23.6084 20.0903 23.9245C19.9019 24.2405 19.6258 24.4815 19.2618 24.6475C18.8979 24.8103 18.4526 24.8918 17.9259 24.8918Z" fill="white"/>
<path d="M27.5842 20.6539V27.626H26.6744V20.6539H27.5842ZM29.8253 20.6539V21.4105H24.4382V20.6539H29.8253Z" fill="white"/>
<path d="M36.7063 23.9197V24.3602C36.7063 24.8838 36.6409 25.353 36.51 25.768C36.3791 26.183 36.1908 26.5358 35.945 26.8263C35.6991 27.1168 35.4039 27.3387 35.0591 27.4919C34.7175 27.6451 34.3344 27.7218 33.9098 27.7218C33.498 27.7218 33.1197 27.6451 32.775 27.4919C32.4334 27.3387 32.1365 27.1168 31.8843 26.8263C31.6353 26.5358 31.4422 26.183 31.3049 25.768C31.1676 25.353 31.099 24.8838 31.099 24.3602V23.9197C31.099 23.3961 31.166 22.9285 31.3001 22.5167C31.4374 22.1017 31.6305 21.7489 31.8795 21.4584C32.1285 21.1647 32.4238 20.9412 32.7654 20.788C33.1102 20.6348 33.4885 20.5582 33.9003 20.5582C34.3248 20.5582 34.7079 20.6348 35.0495 20.788C35.3943 20.9412 35.6896 21.1647 35.9354 21.4584C36.1844 21.7489 36.3743 22.1017 36.5052 22.5167C36.6393 22.9285 36.7063 23.3961 36.7063 23.9197ZM35.7917 24.3602V23.9101C35.7917 23.4951 35.7486 23.128 35.6624 22.8088C35.5794 22.4895 35.4565 22.2214 35.2937 22.0043C35.1309 21.7872 34.9314 21.6228 34.6952 21.5111C34.4621 21.3993 34.1972 21.3435 33.9003 21.3435C33.613 21.3435 33.3528 21.3993 33.1197 21.5111C32.8899 21.6228 32.692 21.7872 32.526 22.0043C32.3632 22.2214 32.2371 22.4895 32.1477 22.8088C32.0583 23.128 32.0136 23.4951 32.0136 23.9101V24.3602C32.0136 24.7784 32.0583 25.1487 32.1477 25.4712C32.2371 25.7904 32.3648 26.0601 32.5308 26.2804C32.7 26.4975 32.8995 26.6619 33.1293 26.7736C33.3624 26.8854 33.6225 26.9412 33.9098 26.9412C34.2099 26.9412 34.4765 26.8854 34.7095 26.7736C34.9426 26.6619 35.1389 26.4975 35.2985 26.2804C35.4613 26.0601 35.5842 25.7904 35.6672 25.4712C35.7502 25.1487 35.7917 24.7784 35.7917 24.3602Z" fill="white"/>
<path d="M47.1165 23.9197V24.3602C47.1165 24.8838 47.0511 25.353 46.9202 25.768C46.7893 26.183 46.6009 26.5358 46.3551 26.8263C46.1093 27.1168 45.814 27.3387 45.4693 27.4919C45.1277 27.6451 44.7446 27.7218 44.32 27.7218C43.9082 27.7218 43.5299 27.6451 43.1852 27.4919C42.8436 27.3387 42.5467 27.1168 42.2945 26.8263C42.0455 26.5358 41.8524 26.183 41.7151 25.768C41.5778 25.353 41.5092 24.8838 41.5092 24.3602V23.9197C41.5092 23.3961 41.5762 22.9285 41.7103 22.5167C41.8476 22.1017 42.0407 21.7489 42.2897 21.4584C42.5387 21.1647 42.834 20.9412 43.1756 20.788C43.5204 20.6348 43.8986 20.5582 44.3105 20.5582C44.735 20.5582 45.1181 20.6348 45.4597 20.788C45.8045 20.9412 46.0998 21.1647 46.3456 21.4584C46.5946 21.7489 46.7845 22.1017 46.9154 22.5167C47.0495 22.9285 47.1165 23.3961 47.1165 23.9197ZM46.2019 24.3602V23.9101C46.2019 23.4951 46.1588 23.128 46.0726 22.8088C45.9896 22.4895 45.8667 22.2214 45.7039 22.0043C45.5411 21.7872 45.3416 21.6228 45.1053 21.5111C44.8723 21.3993 44.6073 21.3435 44.3105 21.3435C44.0231 21.3435 43.763 21.3993 43.5299 21.5111C43.3001 21.6228 43.1022 21.7872 42.9362 22.0043C42.7733 22.2214 42.6473 22.4895 42.5579 22.8088C42.4685 23.128 42.4238 23.4951 42.4238 23.9101V24.3602C42.4238 24.7784 42.4685 25.1487 42.5579 25.4712C42.6473 25.7904 42.7749 26.0601 42.9409 26.2804C43.1101 26.4975 43.3097 26.6619 43.5395 26.7736C43.7725 26.8854 44.0327 26.9412 44.32 26.9412C44.6201 26.9412 44.8867 26.8854 45.1197 26.7736C45.3527 26.6619 45.5491 26.4975 45.7087 26.2804C45.8715 26.0601 45.9944 25.7904 46.0774 25.4712C46.1604 25.1487 46.2019 24.7784 46.2019 24.3602Z" fill="white"/>
<path d="M51.6847 24.8918H49.822V24.14H51.6847C52.0455 24.14 52.3376 24.0825 52.561 23.9676C52.7845 23.8526 52.9473 23.693 53.0495 23.4887C53.1548 23.2844 53.2075 23.0514 53.2075 22.7896C53.2075 22.5502 53.1548 22.3251 53.0495 22.1144C52.9473 21.9037 52.7845 21.7345 52.561 21.6068C52.3376 21.476 52.0455 21.4105 51.6847 21.4105H50.0375V27.626H49.1133V20.6539H51.6847C52.2115 20.6539 52.6568 20.7449 53.0207 20.9269C53.3846 21.1088 53.6608 21.361 53.8491 21.6835C54.0375 22.0027 54.1316 22.3682 54.1316 22.78C54.1316 23.227 54.0375 23.6084 53.8491 23.9245C53.6608 24.2405 53.3846 24.4815 53.0207 24.6475C52.6568 24.8103 52.2115 24.8918 51.6847 24.8918Z" fill="white"/>
<path d="M60.3423 26.8742V27.626H56.6504V26.8742H60.3423ZM56.8371 20.6539V27.626H55.913V20.6539H56.8371ZM59.8539 23.6515V24.4033H56.6504V23.6515H59.8539ZM60.2944 20.6539V21.4105H56.6504V20.6539H60.2944Z" fill="white"/>
<path d="M67.4628 20.6539V27.626H66.5338L63.0239 22.2485V27.626H62.0997V20.6539H63.0239L66.5482 26.0458V20.6539H67.4628Z" fill="white"/>
<path d="M80.6802 27.1113L73.3251 27.1112M80.6802 27.1113L80.6802 23.4337L80.6802 19.7561M80.6802 27.1113L73.938 20.3691" stroke="white" stroke-width="0.8"/>
<path d="M1 1.06189H80.6805" stroke="white" stroke-width="0.8" stroke-linecap="round"/>
<path d="M1 44.6034H36.9022" stroke="white" stroke-width="0.8" stroke-linecap="round"/>
<path d="M46.6938 44.6034L80.8262 44.6034" stroke="white" stroke-width="0.8" stroke-linecap="round"/>
<path d="M40.5288 66.2078C40.7529 68.1249 41.6445 68.707 42.9978 68.686H51.0512C52.3266 68.686 53.3611 67.6485 53.3611 66.3674C53.3611 65.5734 53.6021 64.7978 54.0511 64.144L54.7 63.2C55.2791 62.3575 55.5891 61.3587 55.5891 60.3348V53.6331C55.5891 52.7285 54.9361 51.9578 54.0462 51.8119L44.5078 50.2527C44.3656 50.2294 44.2596 50.1092 44.254 49.9649L43.9006 41.3082C43.8556 40.211 42.9568 39.3452 41.8629 39.3452C40.7561 39.3452 39.8518 40.2311 39.8245 41.3413L39.4309 57.1827" fill="#4E4DD6"/>
<path d="M42.9978 68.686V68.286L42.9916 68.2861L42.9978 68.686ZM54.0511 64.144L53.7214 63.9174L53.7213 63.9176L54.0511 64.144ZM54.7 63.2L55.0296 63.4266L55.0297 63.4266L54.7 63.2ZM54.0462 51.8119L54.111 51.4172L54.1108 51.4171L54.0462 51.8119ZM44.5078 50.2527L44.4429 50.6474L44.4432 50.6475L44.5078 50.2527ZM44.254 49.9649L44.6537 49.9494L44.6536 49.9486L44.254 49.9649ZM43.9006 41.3082L44.3002 41.2919L44.3002 41.2918L43.9006 41.3082ZM39.8245 41.3413L40.2243 41.3512L40.2243 41.3511L39.8245 41.3413ZM39.031 57.1727C39.0255 57.3936 39.2001 57.577 39.421 57.5825C39.6418 57.588 39.8253 57.4134 39.8308 57.1926L39.031 57.1727ZM40.1315 66.2543C40.2493 67.2613 40.5504 67.9958 41.0705 68.4694C41.5948 68.9469 42.273 69.0973 43.004 69.086L42.9916 68.2861C42.3692 68.2957 41.925 68.1656 41.6092 67.8779C41.2892 67.5865 41.0325 67.0714 40.9261 66.1614L40.1315 66.2543ZM42.9978 69.086H51.0512V68.286H42.9978V69.086ZM51.0512 69.086C52.5489 69.086 53.7611 67.8681 53.7611 66.3674H52.9611C52.9611 67.4289 52.1044 68.286 51.0512 68.286V69.086ZM53.7611 66.3674C53.7611 65.6543 53.9776 64.9576 54.3808 64.3704L53.7213 63.9176C53.2266 64.638 52.9611 65.4925 52.9611 66.3674H53.7611ZM54.3807 64.3706L55.0296 63.4266L54.3704 62.9734L53.7214 63.9174L54.3807 64.3706ZM55.0297 63.4266C55.6546 62.5173 55.9891 61.4395 55.9891 60.3348H55.1891C55.1891 61.2779 54.9036 62.1977 54.3704 62.9734L55.0297 63.4266ZM55.9891 60.3348V53.6331H55.1891V60.3348H55.9891ZM55.9891 53.6331C55.9891 52.5335 55.1951 51.5949 54.111 51.4172L53.9815 52.2066C54.6772 52.3207 55.1891 52.9236 55.1891 53.6331H55.9891ZM54.1108 51.4171L44.5723 49.858L44.4432 50.6475L53.9817 52.2067L54.1108 51.4171ZM44.5727 49.858C44.6184 49.8656 44.6519 49.9042 44.6537 49.9494L43.8543 49.9805C43.8673 50.3143 44.1128 50.5932 44.4429 50.6474L44.5727 49.858ZM44.6536 49.9486L44.3002 41.2919L43.5009 41.3245L43.8543 49.9813L44.6536 49.9486ZM44.3002 41.2918C44.2465 39.9816 43.1727 38.9452 41.8629 38.9452V39.7452C42.7409 39.7452 43.4647 40.4404 43.5009 41.3246L44.3002 41.2918ZM41.8629 38.9452C40.5377 38.9452 39.4572 40.0057 39.4246 41.3314L40.2243 41.3511C40.2463 40.4566 40.9746 39.7452 41.8629 39.7452V38.9452ZM39.4246 41.3313L39.031 57.1727L39.8308 57.1926L40.2243 41.3512L39.4246 41.3313Z" fill="white"/>
<path d="M39.5298 53.1995C37.4825 53.1358 37.3628 55.2133 37.3628 55.2133V58.4582C37.3628 58.4582 37.3732 60.2665 37.827 61.6216C38.2808 62.9776 40.2092 64.1538 40.3787 65.2446C40.5482 66.3354 40.447 65.5719 40.5289 66.208" stroke="white" stroke-width="0.8" stroke-miterlimit="10"/>
<path d="M46.6943 36.7819L44.5125 38.8797" stroke="white" stroke-width="0.8" stroke-miterlimit="10" stroke-linecap="round"/>
<path d="M48.7243 41.5079H45.6409" stroke="white" stroke-width="0.8" stroke-miterlimit="10" stroke-linecap="round"/>
<path d="M36.9104 36.7819L39.1037 38.8907" stroke="white" stroke-width="0.8" stroke-miterlimit="10" stroke-linecap="round"/>
<path d="M41.8037 34.3627V37.3518" stroke="white" stroke-width="0.8" stroke-miterlimit="10" stroke-linecap="round"/>
<path d="M46.6943 36.7819L44.5125 38.8797" stroke="white" stroke-width="0.8" stroke-miterlimit="10" stroke-linecap="round"/>
<path d="M34.8843 41.5079H37.9325" stroke="white" stroke-width="0.8" stroke-miterlimit="10" stroke-linecap="round"/>
</svg>
