<svg width="80" height="74" viewBox="0 0 80 74" fill="none" xmlns="http://www.w3.org/2000/svg">
<path d="M19.7902 25.9151L21.06 23.5425C21.06 23.5425 26.8182 26.6828 29.2062 15.0694C31.4144 4.32537 24.5131 1.1863 20.1867 1.35658C15.8603 1.52687 6.64302 6.79567 13.7789 20.1704L11.4716 24.5731" stroke="white" stroke-width="0.8" stroke-linecap="round" stroke-linejoin="round"/>
<path d="M3.60499 73.3584V69.5146L1.95269 65.9507C1.36151 64.6795 1.05833 63.2872 1.05833 61.8874L1.05831 43.1196C1.05831 39.4271 0.588397 34.8872 2.31648 31.6184C4.66607 27.1768 8.70587 24.5916 13.1322 24.5916C17.2023 24.5916 20.848 26.4075 23.2961 29.2829L34.7257 42.2747L41.0317 30.5465L44.8668 33.0813L37.765 52.0659C37.3633 53.148 36.0672 53.5944 35.0819 52.9891L25.4562 47.1174L28.9503 72.5034" stroke="white" stroke-width="0.8" stroke-linecap="round" stroke-linejoin="round"/>
<path d="M47.9141 21.2999C47.9141 21.2999 48.6568 22.3517 48.1111 23.918C47.5654 25.4843 44.8748 33.0811 44.8748 33.0811" stroke="white" stroke-width="0.8" stroke-linecap="round" stroke-linejoin="round"/>
<path d="M41.4031 30.7205L41.4789 28.6094" stroke="white" stroke-width="0.8" stroke-linecap="round" stroke-linejoin="round"/>
<path d="M42.2984 28.7607C42.2991 28.7607 42.2992 28.7597 42.2985 28.7595L39.7293 28.2957C39.5862 28.2698 39.5009 28.1213 39.5507 27.9847L43.7395 16.5025C43.8522 16.1937 44.1458 15.9883 44.4745 15.9883L48.5159 15.9883C49.0577 15.9883 49.4354 16.5257 49.252 17.0355L44.991 28.8776C44.9194 29.0765 44.7146 29.1946 44.5066 29.1569V29.1569C44.2859 29.1168 44.1324 28.9148 44.153 28.6914L44.4198 25.7946C44.4956 25.3103 44.3895 25.0152 44.0636 24.9018C43.7376 24.7883 43.3663 25.0077 43.2374 25.3936L42.2978 28.76C42.2977 28.7603 42.298 28.7607 42.2984 28.7607V28.7607Z" stroke="white" stroke-width="0.8" stroke-linecap="round" stroke-linejoin="round"/>
<path d="M3.60498 69.5147V48.4265" stroke="white" stroke-width="0.8" stroke-linecap="round" stroke-linejoin="round"/>
<path d="M25.4639 47.1172L22.4019 45.2559" stroke="white" stroke-width="0.8" stroke-linecap="round" stroke-linejoin="round"/>
<path d="M51.1294 17.0817L71.4675 24.7267" stroke="white" stroke-width="0.8" stroke-linecap="round" stroke-linejoin="round" stroke-dasharray="2.35 2.35"/>
<path d="M50.3945 18.7391L62.661 34.2997" stroke="white" stroke-width="0.8" stroke-linecap="round" stroke-linejoin="round" stroke-dasharray="2.35 2.35"/>
<path d="M63.9919 30.6566V28.0385C63.9919 27.2743 64.6134 26.6614 65.3714 26.6614H68.0696" stroke="white" stroke-width="0.8" stroke-miterlimit="10" stroke-linecap="round"/>
<path d="M79.4458 30.6566V28.0385C79.4458 27.2743 78.8243 26.6614 78.0664 26.6614H75.3682" stroke="white" stroke-width="0.8" stroke-miterlimit="10" stroke-linecap="round"/>
<path d="M79.4458 38.0115V40.6295C79.4458 41.3938 78.8243 42.0067 78.0664 42.0067H75.3682" stroke="white" stroke-width="0.8" stroke-miterlimit="10" stroke-linecap="round"/>
<path d="M63.9919 38.0115V40.6295C63.9919 41.3938 64.6134 42.0067 65.3714 42.0067H68.0696" stroke="white" stroke-width="0.8" stroke-miterlimit="10" stroke-linecap="round"/>
<path d="M66.4705 32.586V30.0058C66.4705 29.4912 66.8873 29.0675 67.4103 29.0675H69.9721" stroke="white" stroke-width="0.8" stroke-miterlimit="10" stroke-linecap="round"/>
<path d="M71.7151 29.0675V30.2555" stroke="white" stroke-width="0.8" stroke-miterlimit="10" stroke-linecap="round"/>
<path d="M76.3919 28.9995H74.6184C74.2542 28.9995 73.959 29.2942 73.959 29.6578V31.4284C73.959 31.792 74.2542 32.0867 74.6184 32.0867H76.3919C76.7561 32.0867 77.0514 31.792 77.0514 31.4284V29.6578C77.0514 29.2942 76.7561 28.9995 76.3919 28.9995Z" stroke="white" stroke-width="0.8" stroke-miterlimit="10" stroke-linecap="round"/>
<path d="M76.3919 36.566H74.6184C74.2542 36.566 73.959 36.8608 73.959 37.2243V38.9949C73.959 39.3585 74.2542 39.6532 74.6184 39.6532H76.3919C76.7561 39.6532 77.0514 39.3585 77.0514 38.9949V37.2243C77.0514 36.8608 76.7561 36.566 76.3919 36.566Z" stroke="white" stroke-width="0.8" stroke-miterlimit="10" stroke-linecap="round"/>
<path d="M68.8121 36.566H67.0386C66.6744 36.566 66.3792 36.8608 66.3792 37.2243V38.9949C66.3792 39.3585 66.6744 39.6532 67.0386 39.6532H68.8121C69.1763 39.6532 69.4715 39.3585 69.4715 38.9949V37.2243C69.4715 36.8608 69.1763 36.566 68.8121 36.566Z" stroke="white" stroke-width="0.8" stroke-miterlimit="10" stroke-linecap="round"/>
<path d="M68.2212 32.0031H71.8062" stroke="white" stroke-width="0.8" stroke-miterlimit="10" stroke-linecap="round"/>
<path d="M73.959 34.3336H74.8761" stroke="white" stroke-width="0.8" stroke-miterlimit="10" stroke-linecap="round"/>
<path d="M76.2097 34.3336H77.0586" stroke="white" stroke-width="0.8" stroke-miterlimit="10" stroke-linecap="round"/>
<path d="M66.4321 34.3336H70.7827C71.2981 34.3336 71.7225 34.7498 71.7225 35.2719V39.6605" stroke="white" stroke-width="0.8" stroke-miterlimit="10" stroke-linecap="round"/>
</svg>
