<svg width="60" height="60" viewBox="0 0 60 60" fill="none" xmlns="http://www.w3.org/2000/svg">
<circle cx="30" cy="30" r="29.4" stroke="white" stroke-width="1.2"/>
<path d="M15 23.0797V17.9974C15 16.5139 16.2065 15.3241 17.6778 15.3241H22.9158" stroke="white" stroke-width="1.2" stroke-miterlimit="10" stroke-linecap="round"/>
<path d="M45 23.0796V17.9973C45 16.5138 43.7935 15.324 42.3222 15.324H37.0842" stroke="white" stroke-width="1.2" stroke-miterlimit="10" stroke-linecap="round"/>
<path d="M45 37.3574V42.4397C45 43.9233 43.7935 45.113 42.3222 45.113H37.0842" stroke="white" stroke-width="1.2" stroke-miterlimit="10" stroke-linecap="round"/>
<path d="M15 37.3574V42.4397C15 43.9233 16.2065 45.113 17.6778 45.113H22.9158" stroke="white" stroke-width="1.2" stroke-miterlimit="10" stroke-linecap="round"/>
<path d="M19.811 26.8255V21.8166C19.811 20.8178 20.6203 19.9952 21.6355 19.9952H26.6086" stroke="white" stroke-width="1.2" stroke-miterlimit="10" stroke-linecap="round"/>
<path d="M29.9922 19.9952V22.3014" stroke="white" stroke-width="1.2" stroke-miterlimit="10" stroke-linecap="round"/>
<path d="M39.0709 19.8632H35.628C34.921 19.8632 34.3479 20.4353 34.3479 21.1411V24.5782C34.3479 25.284 34.921 25.8561 35.628 25.8561H39.0709C39.7778 25.8561 40.351 25.284 40.351 24.5782V21.1411C40.351 20.4353 39.7778 19.8632 39.0709 19.8632Z" stroke="white" stroke-width="1.2" stroke-miterlimit="10" stroke-linecap="round"/>
<path d="M39.0709 34.5514H35.628C34.921 34.5514 34.3479 35.1235 34.3479 35.8293V39.2665C34.3479 39.9722 34.921 40.5444 35.628 40.5444H39.0709C39.7778 40.5444 40.351 39.9722 40.351 39.2665V35.8293C40.351 35.1235 39.7778 34.5514 39.0709 34.5514Z" stroke="white" stroke-width="1.2" stroke-miterlimit="10" stroke-linecap="round"/>
<path d="M24.3568 34.5514H20.9139C20.2069 34.5514 19.6338 35.1235 19.6338 35.8293V39.2665C19.6338 39.9722 20.2069 40.5444 20.9139 40.5444H24.3568C25.0637 40.5444 25.6368 39.9722 25.6368 39.2665V35.8293C25.6368 35.1235 25.0637 34.5514 24.3568 34.5514Z" stroke="white" stroke-width="1.2" stroke-miterlimit="10" stroke-linecap="round"/>
<path d="M23.2097 25.6934H30.1691" stroke="white" stroke-width="1.2" stroke-miterlimit="10" stroke-linecap="round"/>
<path d="M34.3479 30.2179H36.1282" stroke="white" stroke-width="1.2" stroke-miterlimit="10" stroke-linecap="round"/>
<path d="M38.7173 30.2179H40.3652" stroke="white" stroke-width="1.2" stroke-miterlimit="10" stroke-linecap="round"/>
<path d="M19.7368 30.2179H28.1823C29.1828 30.2179 30.0067 31.0258 30.0067 32.0393V40.5587" stroke="white" stroke-width="1.2" stroke-miterlimit="10" stroke-linecap="round"/>
</svg>
