<svg width="119" height="44" viewBox="0 0 119 44" fill="none" xmlns="http://www.w3.org/2000/svg">
<path d="M41.028 30.4389H48.6646C48.7975 30.4389 48.9305 30.423 49.0634 30.3964C49.3399 30.3379 49.5686 30.1464 49.6962 29.8965C49.7707 29.7529 49.8079 29.5934 49.8186 29.4338C49.8345 29.1945 49.8611 28.9286 49.7547 28.7106C49.542 28.2692 48.989 28.1947 48.5582 28.1947L41.028 28.2054V30.4442V30.4389ZM41.0333 37.6979H49.1113C49.2868 37.6979 49.4623 37.682 49.6324 37.6554C49.9249 37.6075 50.4142 37.2619 50.4142 36.5918C50.4142 35.9217 49.9887 35.4857 49.2229 35.4591H41.0333V37.6979ZM36.5928 23.2012L48.8241 23.2384C49.8558 23.2969 50.9034 23.4564 51.8607 23.85C53.1955 24.3977 53.9666 25.5996 54.1793 27.0035C54.1793 27.0195 54.1793 27.0301 54.1846 27.0461C54.3069 27.8969 54.2963 28.7425 54.1474 29.5934C53.8762 31.1834 52.9721 32.481 51.0311 32.9384C51.2331 32.9969 51.3714 33.0394 51.5097 33.0766C53.6954 33.6457 54.5781 34.9432 54.8015 37.0545C54.8813 37.8149 54.8281 38.5701 54.61 39.3146C54.1633 40.8302 53.0891 41.6705 51.6533 42.1544C50.2865 42.6117 48.872 42.7022 47.4521 42.7022H36.5928V23.2012Z" fill="#EF9CB6"/>
<path d="M0 13.6926H4.44582C4.46177 13.8043 4.47241 13.9106 4.48836 14.0223C4.61068 14.7775 5.04143 15.3252 5.73808 15.5858C6.29647 15.7932 6.90272 15.9421 7.49833 15.99C8.85441 16.107 10.2158 16.1229 11.5453 15.7826C11.8378 15.7081 12.1196 15.5592 12.3749 15.3944C12.7046 15.1816 12.8854 14.8519 12.8429 14.4478C12.8057 14.0436 12.5132 13.8202 12.1675 13.7298C11.5825 13.5756 10.9869 13.4533 10.3913 13.3735C8.66828 13.1502 6.93995 12.98 5.22224 12.746C4.41391 12.6343 3.6694 12.2993 2.94084 11.9217C1.38799 11.1187 0.499889 9.84772 0.23399 8.14065C-0.101041 5.92306 0.494571 4.02455 2.23355 2.54615C3.16419 1.75377 4.28096 1.32834 5.45623 1.07307C7.72169 0.578504 9.98714 0.551914 12.2366 1.15284C13.7735 1.56765 15.0924 2.33875 16.0709 3.63633C16.943 4.79033 17.5599 6.74734 17.4163 8.05025H13.0077C12.9439 6.77393 12.1409 6.19428 11.0082 5.93901C10.7689 5.88583 10.5243 5.82734 10.2849 5.80075C8.95014 5.66248 7.61001 5.63589 6.29647 5.96029C5.95612 6.04537 5.61577 6.21023 5.33924 6.42295C4.65854 6.95474 4.73831 7.9492 5.52537 8.28955C6.11566 8.54482 6.77509 8.69372 7.41856 8.78412C9.07777 9.02343 10.7476 9.18297 12.4015 9.42228C13.4172 9.56587 14.3638 9.93812 15.2572 10.4486C16.6931 11.2676 17.3951 12.5386 17.5599 14.1393C17.6397 14.9476 17.5865 15.7613 17.3525 16.5537C16.8048 18.399 15.5657 19.5902 13.8108 20.2709C12.0558 20.9569 10.2158 21.0899 8.35452 21.0527C6.91336 21.0208 5.50941 20.808 4.1746 20.239C1.80279 19.2339 0.494571 17.4152 0.101041 14.9104C0.0425437 14.5169 0.0372258 14.118 0 13.6926Z" fill="#EF9CB6"/>
<path d="M23.7396 12.278V15.0753H34.5829V20.6272H19.2991V1.15283H34.3064V6.69415H23.7502V9.4914H33.7427V12.278H23.7396Z" fill="#EF9CB6"/>
<path d="M41.028 12.278V15.0753H51.8713V20.6272H36.5928V1.15283H51.6001V6.69415H41.0386V9.4914H51.0364V12.278H41.028Z" fill="#EF9CB6"/>
<path d="M0 35.7517H4.44582C4.46177 35.8634 4.47241 35.9698 4.48836 36.0815C4.61068 36.8366 5.04143 37.3844 5.73808 37.6449C6.29647 37.8523 6.90272 38.0012 7.49833 38.0491C8.85441 38.1661 10.2158 38.1821 11.5453 37.8417C11.8378 37.7673 12.1196 37.6184 12.3749 37.4535C12.7046 37.2408 12.8854 36.9111 12.8429 36.5069C12.8057 36.1027 12.5132 35.8794 12.1675 35.789C11.5825 35.6348 10.9869 35.5124 10.3913 35.4327C8.66828 35.2093 6.93995 35.0391 5.22224 34.8051C4.41391 34.6935 3.6694 34.3584 2.94084 33.9809C1.38799 33.1778 0.499889 31.9069 0.23399 30.1998C-0.106359 27.9822 0.494571 26.0837 2.23355 24.6106C3.16419 23.8182 4.28096 23.3928 5.45623 23.1375C7.72169 22.643 9.98714 22.6164 12.2366 23.2173C13.7735 23.6321 15.0924 24.4032 16.0709 25.7008C16.943 26.8548 17.5599 28.8118 17.4163 30.1147H13.0077C12.9439 28.8384 12.1409 28.2587 11.0082 28.0035C10.7689 27.9503 10.5243 27.8918 10.2849 27.8652C8.95014 27.7269 7.61001 27.7003 6.29647 28.0247C5.95612 28.1098 5.61577 28.2747 5.33924 28.4874C4.65854 29.0192 4.73831 30.0137 5.52537 30.354C6.11566 30.6093 6.77509 30.7582 7.41856 30.8486C9.07777 31.0879 10.7476 31.2474 12.4015 31.4867C13.4172 31.6303 14.3638 32.0026 15.2572 32.5131C16.6931 33.3321 17.3951 34.6031 17.5599 36.2038C17.6397 37.0121 17.5865 37.8258 17.3525 38.6181C16.8048 40.4635 15.5657 41.6547 13.8108 42.3354C12.0558 43.0214 10.2158 43.1544 8.35452 43.1171C6.91336 43.0852 5.50941 42.8725 4.1746 42.3035C1.81343 41.2931 0.510525 39.4743 0.116995 36.9696C0.0584976 36.576 0.0531797 36.1772 0.0159539 35.7517" fill="#EF9CB6"/>
<path d="M19.3043 23.2064H23.7502V33.4914C23.7608 33.9115 23.814 34.3316 23.8991 34.7411C24.1543 35.9483 24.8244 37.299 26.9409 37.299C29.0575 37.299 29.9562 35.6664 30.0945 34.2093C30.1211 33.9115 30.137 33.6137 30.137 33.3159V23.2064H34.5775V34.0125C34.5775 35.3474 34.4074 36.6609 34.0085 37.9372C33.2161 40.5005 30.9932 43.1488 26.925 43.1488C22.8567 43.1488 20.4317 40.2186 19.7298 37.4533C19.416 36.2195 19.2937 34.9698 19.2937 33.6935V23.1958L19.3043 23.2064Z" fill="#EF9CB6"/>
<path d="M60.9492 23.2065H56.5247V42.7128H60.9492V23.2065Z" fill="#EF9CB6"/>
<path d="M73.8771 33.7786C73.3294 32.0715 72.8029 30.4177 72.2658 28.7478H71.6914L70.0801 33.7786H73.8718H73.8771ZM81.7317 42.7075H76.7329L75.6693 39.3572C73.5687 39.3572 68.3039 39.3572 68.3039 39.3572C68.0273 40.2825 67.5275 41.7875 67.235 42.7075C67.235 42.7075 63.9378 42.7075 62.3584 42.7075L68.7772 23.2012H75.3449C77.4295 29.5774 81.7317 42.7075 81.7317 42.7075Z" fill="#EF9CB6"/>
<path d="M99.3183 31.5293H94.8991C94.5747 29.9658 93.644 29.0564 92.0646 28.7533C91.0489 28.5619 90.0385 28.5725 89.0334 28.8012C87.1242 29.2426 85.9383 30.5029 85.9383 32.9545C85.9383 35.4061 87.1508 36.4537 88.4165 36.9058C89.8364 37.4163 91.2882 37.4269 92.7134 36.9536C93.5802 36.6718 94.2875 36.14 94.6651 35.2731C94.7874 34.9966 94.8565 34.7413 94.9204 34.3691H99.3343C99.3077 34.8158 99.297 35.2519 99.2545 35.6879C99.1481 36.7462 98.9301 37.7832 98.4887 38.7564C97.6059 40.7081 96.1063 42.0004 94.0854 42.6226C91.7455 43.3458 89.3684 43.3299 87.0391 42.5907C84.3536 41.7398 82.7209 39.8466 81.9764 37.1504C81.4659 35.2944 81.3968 33.3959 81.5191 31.4867C81.5935 30.3221 81.7956 29.1787 82.1838 28.0779C83.2262 25.1318 85.3587 23.4938 88.3899 22.9567C90.1927 22.6376 92.0061 22.6483 93.7717 23.1641C96.7125 24.015 98.4621 25.9933 99.0684 28.9873C99.2385 29.8116 99.3343 30.6465 99.313 31.5133" fill="#EF9CB6"/>
<path d="M118.739 30.9706C118.617 29.7475 118.351 28.5563 117.857 27.4288C116.883 25.19 115.166 23.802 112.842 23.1798C111.778 22.8926 110.709 22.7544 109.64 22.7597C108.566 22.7597 107.497 22.8979 106.439 23.1798C104.115 23.8073 102.403 25.19 101.424 27.4288C100.93 28.5616 100.664 29.7475 100.541 30.9706C100.339 33.0446 100.398 35.0974 100.94 37.1235C101.653 39.7825 103.253 41.6438 105.881 42.5691C107.093 42.9945 108.715 43.186 109.64 43.186C110.566 43.186 112.188 42.9945 113.4 42.5691C116.027 41.6491 117.628 39.7825 118.341 37.1235C118.883 35.1027 118.941 33.0446 118.739 30.9706ZM114.336 33.8104C114.118 35.3526 113.166 37.3309 109.64 37.3309C106.115 37.3309 105.168 35.3526 104.945 33.8104C104.844 33.1031 104.865 32.3958 105.019 31.6939C105.343 30.2155 106.428 28.5988 109.64 28.5988C112.852 28.5988 113.937 30.2155 114.262 31.6939C114.416 32.3958 114.437 33.0978 114.336 33.8104Z" fill="#EF9CB6"/>
</svg>
