<svg width="61" height="66" viewBox="0 0 61 66" fill="none" xmlns="http://www.w3.org/2000/svg">
<path id="Vector" d="M57.9952 39.3216C60.3062 40.668 61.0977 43.6473 59.7655 45.9808L56.8352 51.0985C55.3338 53.7214 52.0078 54.6201 49.4069 53.106L43.7699 49.8221C40.7339 48.0553 38.2749 49.487 38.2749 53.0208V60.1948C38.2749 62.8877 36.112 65.0688 33.4415 65.0688H27.581C24.5782 65.0688 22.1434 62.6135 22.1434 59.5855V53.0208C22.1434 49.487 19.6844 48.0553 16.6484 49.8221L10.4858 53.4107C8.17484 54.7571 5.21739 53.959 3.88216 51.6255L0.951907 46.5078C-0.549472 43.8849 0.341689 40.5309 2.94267 39.0169L8.57964 35.733C11.6126 33.9662 11.6126 31.1027 8.57964 29.3358L2.41704 25.7473C0.10606 24.4008 -0.685411 21.4215 0.646798 19.0881L3.57705 13.9703C5.07843 11.3474 8.40443 10.4488 11.0054 11.9628L16.6454 15.2467C19.6784 17.0136 22.1404 15.5818 22.1404 12.0481V4.87407C22.1404 2.18115 24.3033 0 26.9738 0H32.5322C35.7011 0 38.2719 2.5924 38.2719 5.78796V12.3527C38.2719 15.7189 40.6161 17.0806 43.5041 15.399L49.4038 11.9628C52.0048 10.4488 55.3308 11.3474 56.8322 13.9703L60.0645 19.6151C61.2336 21.6561 60.5388 24.2637 58.5178 25.4396L53.9261 28.1142C49.7361 30.5543 49.7361 34.5084 53.9261 36.9485L57.9952 39.3185V39.3216Z" fill="#FAEFD5"/>
</svg>
