<svg width="332" height="86" viewBox="0 0 332 86" fill="none" xmlns="http://www.w3.org/2000/svg">
<path d="M12.1587 58.6953V85H9.95459V58.6953H12.1587ZM21.1738 58.6953V60.6104H0.95752V58.6953H21.1738ZM43.8057 83.103V85H29.0093V83.103H43.8057ZM29.6777 58.6953V85H27.4556V58.6953H29.6777ZM41.9629 70.4927V72.3896H29.0093V70.4927H41.9629ZM43.7153 58.6953V60.6104H29.0093V58.6953H43.7153ZM67.7383 83.103V85H49.6177V83.103H67.7383ZM67.1602 60.3032L50.2139 85H48.8228V83.3018L65.7329 58.6953H67.1602V60.3032ZM66.1846 58.6953V60.5923H49.2925V58.6953H66.1846ZM93.6221 70.4385V73.2568C93.6221 75.0996 93.3812 76.7677 92.8994 78.2612C92.4297 79.7427 91.7432 81.0133 90.8398 82.0732C89.9486 83.1331 88.8766 83.9461 87.624 84.5122C86.3714 85.0783 84.9622 85.3613 83.3965 85.3613C81.8669 85.3613 80.4697 85.0783 79.2051 84.5122C77.9525 83.9461 76.8745 83.1331 75.9712 82.0732C75.0679 81.0133 74.3693 79.7427 73.8755 78.2612C73.3817 76.7677 73.1348 75.0996 73.1348 73.2568V70.4385C73.1348 68.5957 73.3757 66.9336 73.8574 65.4521C74.3512 63.9587 75.0498 62.682 75.9531 61.6221C76.8564 60.5622 77.9344 59.7492 79.187 59.1831C80.4396 58.617 81.8307 58.334 83.3604 58.334C84.9261 58.334 86.3353 58.617 87.5879 59.1831C88.8405 59.7492 89.9185 60.5622 90.8218 61.6221C91.7251 62.682 92.4176 63.9587 92.8994 65.4521C93.3812 66.9336 93.6221 68.5957 93.6221 70.4385ZM91.418 73.2568V70.4023C91.418 68.8486 91.2373 67.4515 90.876 66.2109C90.5267 64.9704 90.0028 63.9105 89.3042 63.0312C88.6177 62.152 87.7746 61.4775 86.7749 61.0078C85.7752 60.5381 84.637 60.3032 83.3604 60.3032C82.1198 60.3032 81.0057 60.5381 80.0181 61.0078C79.0304 61.4775 78.1873 62.152 77.4888 63.0312C76.8022 63.9105 76.2723 64.9704 75.8989 66.2109C75.5376 67.4515 75.3569 68.8486 75.3569 70.4023V73.2568C75.3569 74.8226 75.5376 76.2318 75.8989 77.4844C76.2723 78.7249 76.8083 79.7909 77.5068 80.6821C78.2054 81.5614 79.0485 82.2358 80.0361 82.7056C81.0358 83.1753 82.1559 83.4102 83.3965 83.4102C84.6852 83.4102 85.8234 83.1753 86.811 82.7056C87.7987 82.2358 88.6357 81.5614 89.3223 80.6821C90.0088 79.7909 90.5267 78.7249 90.876 77.4844C91.2373 76.2318 91.418 74.8226 91.418 73.2568ZM116.127 78.5322C116.127 77.8096 116.007 77.1652 115.766 76.5991C115.525 76.033 115.128 75.5272 114.574 75.0815C114.032 74.6239 113.297 74.2023 112.37 73.8169C111.454 73.4194 110.31 73.028 108.937 72.6426C107.624 72.2692 106.438 71.8597 105.378 71.4141C104.318 70.9684 103.409 70.4565 102.65 69.8784C101.903 69.3003 101.331 68.6258 100.934 67.855C100.536 67.0721 100.337 66.1628 100.337 65.127C100.337 64.1152 100.554 63.1938 100.988 62.3628C101.421 61.5317 102.03 60.8151 102.812 60.2129C103.607 59.6107 104.541 59.147 105.613 58.8218C106.697 58.4966 107.883 58.334 109.172 58.334C111.015 58.334 112.604 58.6833 113.941 59.3818C115.29 60.0804 116.332 61.0259 117.067 62.2183C117.814 63.3986 118.187 64.7235 118.187 66.1929H115.965C115.965 65.0487 115.694 64.0309 115.152 63.1396C114.622 62.2363 113.851 61.5317 112.839 61.0259C111.84 60.508 110.617 60.249 109.172 60.249C107.727 60.249 106.51 60.4718 105.522 60.9175C104.547 61.3511 103.806 61.9352 103.3 62.6699C102.806 63.3926 102.56 64.1995 102.56 65.0908C102.56 65.7171 102.68 66.2952 102.921 66.8252C103.162 67.3431 103.553 67.8309 104.095 68.2886C104.649 68.7342 105.378 69.1558 106.281 69.5532C107.185 69.9386 108.299 70.306 109.624 70.6553C111.021 71.0407 112.261 71.4683 113.345 71.938C114.429 72.4077 115.345 72.9497 116.091 73.564C116.838 74.1662 117.404 74.8708 117.79 75.6777C118.175 76.4847 118.368 77.4242 118.368 78.4961C118.368 79.568 118.139 80.5316 117.681 81.3867C117.236 82.2298 116.603 82.9465 115.784 83.5366C114.977 84.1268 114.02 84.5785 112.912 84.8916C111.816 85.2048 110.617 85.3613 109.316 85.3613C108.148 85.3613 106.986 85.2108 105.83 84.9097C104.673 84.6086 103.613 84.1449 102.65 83.5186C101.698 82.8802 100.934 82.0612 100.355 81.0615C99.7894 80.0618 99.5063 78.8695 99.5063 77.4844H101.71C101.71 78.5924 101.933 79.5259 102.379 80.2847C102.825 81.0435 103.415 81.6577 104.149 82.1274C104.896 82.5972 105.715 82.9404 106.606 83.1572C107.51 83.362 108.413 83.4644 109.316 83.4644C110.701 83.4644 111.9 83.2596 112.912 82.8501C113.935 82.4406 114.724 81.8685 115.278 81.1338C115.844 80.387 116.127 79.5199 116.127 78.5322ZM144.842 60.2671L135.737 85H133.424L143.361 58.6953H144.969L144.842 60.2671ZM153.117 85L143.993 60.2671L143.867 58.6953H145.475L155.429 85H153.117ZM151.491 75.7139V77.6289H137.525V75.7139H151.491ZM161.277 58.6953H169.823C171.641 58.6953 173.219 58.9904 174.556 59.5806C175.893 60.1707 176.923 61.0439 177.646 62.2002C178.38 63.3444 178.748 64.7536 178.748 66.4277C178.748 67.6683 178.483 68.7944 177.953 69.8062C177.435 70.8179 176.718 71.667 175.803 72.3535C174.887 73.028 173.827 73.4917 172.623 73.7446L171.846 74.0337H162.723L162.687 72.1367H170.329C171.702 72.1367 172.846 71.8717 173.761 71.3418C174.677 70.8118 175.363 70.1133 175.821 69.2461C176.291 68.3669 176.525 67.4274 176.525 66.4277C176.525 65.2354 176.266 64.2056 175.749 63.3384C175.243 62.4591 174.49 61.7847 173.49 61.3149C172.491 60.8452 171.268 60.6104 169.823 60.6104H163.5V85H161.277V58.6953ZM177.519 85L170.708 73.2388L173.093 73.2207L179.886 84.7651V85H177.519ZM194.225 58.6953V85H192.021V58.6953H194.225ZM203.24 58.6953V60.6104H183.024V58.6953H203.24ZM226.499 78.0444L232.208 58.6953H233.997L232.551 64.4404L226.463 85H224.747L226.499 78.0444ZM219.869 58.6953L224.674 77.8638L226.12 85H224.331L217.592 58.6953H219.869ZM241.693 77.8638L246.426 58.6953H248.703L241.982 85H240.193L241.693 77.8638ZM234.195 58.6953L239.832 78.0444L241.566 85H239.85L233.888 64.4404L232.425 58.6953H234.195ZM262.843 60.2671L253.738 85H251.425L261.362 58.6953H262.97L262.843 60.2671ZM271.118 85L261.994 60.2671L261.868 58.6953H263.476L273.43 85H271.118ZM269.492 75.7139V77.6289H255.526V75.7139H269.492ZM294.544 83.103V85H280.904V83.103H294.544ZM281.555 58.6953V85H279.333V58.6953H281.555ZM303.066 58.6953V85H300.844V58.6953H303.066ZM319.326 58.6953L307.98 70.7456L302.271 76.3643L302.055 73.8892L306.644 69.1196L316.544 58.6953H319.326ZM317.483 85L306.409 71.4863L307.746 69.6978L320.175 85H317.483Z" fill="white"/>
<path d="M22.9926 23.9212C22.6592 17.9665 15.2366 15.2598 14.5262 14.9818C14.4972 14.9672 14.4972 14.9379 14.5117 14.9087L22.1663 7.15441V6.32046C22.1663 6.18879 22.0503 6.07174 21.9198 6.07174H7.814V1.40455V0L2.6095 1.0973V1.88736H2.89944C2.89944 1.88736 4.1752 1.88736 4.1752 3.17486V6.05711H0.144972C0.0724861 6.05711 0 6.13026 0 6.20342V8.03225H4.1897V17.9665C4.1897 21.0828 6.17582 23.2482 9.65515 22.9556C10.3945 22.897 11.0759 22.6044 11.6558 22.224C11.9167 22.0485 12.0762 21.7705 12.0762 21.4486V20.4683C10.9454 21.2291 9.98859 21.1853 9.98859 21.1853C7.78501 21.1853 7.8285 18.3615 7.8285 18.3615V8.03225H17.9766L10.67 15.4646C10.6555 16.4449 10.641 17.2057 10.641 17.2203C10.641 17.2496 10.6555 17.2642 10.6845 17.2642C17.3822 18.4054 19.1943 22.78 19.1943 24.0529C19.1943 24.0529 19.9192 30.2417 13.7869 30.6659C13.7869 30.6659 9.77113 30.8415 9.06077 29.2175C9.03177 29.159 9.06077 29.1005 9.11875 29.0712C9.78563 28.764 10.235 28.1641 10.235 27.3594C10.235 26.1597 9.51018 25.1794 7.98797 25.1794C6.75571 25.1794 5.7409 26.1597 5.7409 27.3594C5.7409 27.3594 5.16101 32.5679 13.7724 32.4216C23.6015 32.2461 22.9926 23.9212 22.9926 23.9212Z" fill="white"/>
</svg>
