<svg width="60" height="60" viewBox="0 0 60 60" fill="none" xmlns="http://www.w3.org/2000/svg">
<circle cx="30" cy="30" r="29.4" stroke="white" stroke-width="1.2"/>
<path d="M12.3358 40.817L12.8868 41.0547L12.8895 41.0482L12.3358 40.817ZM13.1529 43.8895L13.453 43.3698L13.4448 43.3653L13.1529 43.8895ZM19.4916 47.5492L19.1916 48.0688L19.4916 47.5492ZM22.3634 46.774L22.883 47.074L22.3634 46.774ZM23.9168 45.3374L23.6585 44.7959L23.6583 44.796L23.9168 45.3374ZM24.8566 44.8893L25.1148 45.4309L25.1148 45.4309L24.8566 44.8893ZM26.8584 43.0382L27.378 43.3382L26.8584 43.0382ZM29.9038 37.7633L29.3842 37.4633L29.9038 37.7633ZM29.517 35.6288L29.8971 35.1646L29.8969 35.1644L29.517 35.6288ZM22.7179 30.0671L22.3376 30.5312L22.338 30.5315L22.7179 30.0671ZM22.6489 29.7253L23.1798 30.0048L23.1804 30.0038L22.6489 29.7253ZM26.3046 22.7511L26.836 23.0296L26.8361 23.0295L26.3046 22.7511ZM25.5929 20.28L25.8929 19.7604L25.5929 20.28ZM23.0814 20.9248L23.5934 21.2376L23.5934 21.2375L23.0814 20.9248ZM15.0609 32.9017C14.8881 33.1845 14.9773 33.5537 15.2601 33.7265C15.5428 33.8993 15.9121 33.8101 16.0849 33.5273L15.0609 32.9017ZM14.8399 30.7249L14.3384 30.3955L14.3289 30.41L14.3203 30.4249L14.8399 30.7249ZM13.3653 33.2789L12.8457 32.9789L12.844 32.9819L13.3653 33.2789ZM12.2932 35.9798L12.8811 36.0994L12.8812 36.0993L12.2932 35.9798ZM32.9165 20.8497C33.2382 20.7703 33.4346 20.445 33.3551 20.1233C33.2756 19.8016 32.9504 19.6053 32.6287 19.6847L32.9165 20.8497ZM28.8642 20.6146C28.5425 20.6941 28.3461 21.0193 28.4256 21.341C28.505 21.6627 28.8302 21.8591 29.1519 21.7796L28.8642 20.6146ZM31.6977 27.3309C31.9846 27.4966 32.3516 27.3983 32.5173 27.1113C32.683 26.8243 32.5846 26.4574 32.2977 26.2917L31.6977 27.3309ZM28.8766 24.3165C28.5896 24.1509 28.2226 24.2492 28.057 24.5362C27.8913 24.8231 27.9896 25.1901 28.2766 25.3558L28.8766 24.3165ZM22.4939 13.8334C22.4018 13.515 22.0692 13.3316 21.7508 13.4236C21.4325 13.5156 21.249 13.8483 21.3411 14.1666L22.4939 13.8334ZM22.4237 17.9114C22.5157 18.2297 22.8484 18.4132 23.1667 18.3211C23.4851 18.2291 23.6685 17.8964 23.5765 17.5781L22.4237 17.9114ZM29.4158 14.7502C29.5815 14.4633 29.4832 14.0963 29.1962 13.9306C28.9092 13.7649 28.5423 13.8633 28.3766 14.1502L29.4158 14.7502ZM26.4619 17.4667C26.2962 17.7536 26.3945 18.1206 26.6815 18.2863C26.9685 18.452 27.3354 18.3536 27.5011 18.0667L26.4619 17.4667ZM16.9422 17.4262C16.6552 17.2606 16.2883 17.3589 16.1226 17.6459C15.9569 17.9328 16.0552 18.2998 16.3422 18.4655L16.9422 17.4262ZM19.7242 20.4181C20.0112 20.5837 20.3781 20.4854 20.5438 20.1984C20.7095 19.9115 20.6112 19.5445 20.3242 19.3788L19.7242 20.4181ZM11.7849 40.5794C11.4085 41.452 11.2907 42.2297 11.5091 42.9151C11.7301 43.6085 12.2525 44.0748 12.861 44.4137L13.4448 43.3653C12.9787 43.1057 12.7451 42.8412 12.6525 42.5507C12.5573 42.2521 12.5683 41.7928 12.8867 41.0547L11.7849 40.5794ZM12.8529 44.4091L19.1916 48.0688L19.7916 47.0296L13.4529 43.3699L12.8529 44.4091ZM19.1916 48.0688C20.4842 48.8151 22.1362 48.3675 22.883 47.074L21.8438 46.474C21.4263 47.197 20.5068 47.4425 19.7916 47.0296L19.1916 48.0688ZM22.883 47.074C23.1832 46.554 23.6342 46.1372 24.1753 45.8789L23.6583 44.796C22.8984 45.1588 22.2653 45.7439 21.8438 46.474L22.883 47.074ZM24.175 45.879L25.1148 45.4309L24.5983 44.3477L23.6585 44.7959L24.175 45.879ZM25.1148 45.4309C26.0631 44.9786 26.8521 44.249 27.378 43.3382L26.3388 42.7382C25.9341 43.4391 25.3272 44.0001 24.5983 44.3477L25.1148 45.4309ZM27.378 43.3382L30.4234 38.0633L29.3842 37.4633L26.3388 42.7382L27.378 43.3382ZM30.4234 38.0633C30.9808 37.098 30.7597 35.8709 29.8971 35.1646L29.1369 36.093C29.5426 36.4253 29.649 37.0048 29.3842 37.4633L30.4234 38.0633ZM29.8969 35.1644L23.0978 29.6027L22.338 30.5315L29.1371 36.0932L29.8969 35.1644ZM23.0983 29.6031C23.2178 29.7011 23.2512 29.8693 23.1798 30.0048L22.118 29.4457C21.9244 29.8135 22.0155 30.2671 22.3376 30.5312L23.0983 29.6031ZM23.1804 30.0038L26.836 23.0296L25.7732 22.4725L22.1175 29.4467L23.1804 30.0038ZM26.8361 23.0295C27.4477 21.8622 27.0343 20.4194 25.8929 19.7604L25.2929 20.7996C25.8734 21.1348 26.0879 21.8718 25.7732 22.4726L26.8361 23.0295ZM25.8929 19.7604C24.7379 19.0936 23.2638 19.4746 22.5693 20.6121L23.5934 21.2375C23.9508 20.6523 24.7056 20.4605 25.2929 20.7996L25.8929 19.7604ZM22.5694 20.612L15.0609 32.9017L16.0849 33.5273L23.5934 21.2376L22.5694 20.612ZM17.7766 29.6146C17.29 29.3131 16.8129 29.1906 16.3642 29.2051C15.9206 29.2194 15.5443 29.3661 15.2496 29.5417C14.9568 29.7162 14.7334 29.9258 14.585 30.0874C14.5098 30.1692 14.4514 30.2415 14.4104 30.2952C14.3898 30.3222 14.3735 30.3448 14.3615 30.3618C14.3555 30.3703 14.3506 30.3775 14.3467 30.3831C14.3448 30.386 14.3431 30.3884 14.3417 30.3905C14.341 30.3915 14.3404 30.3925 14.3399 30.3933C14.3396 30.3937 14.3393 30.3941 14.3391 30.3945C14.3389 30.3947 14.3388 30.395 14.3387 30.395C14.3385 30.3953 14.3384 30.3955 14.8399 30.7249C15.3414 31.0543 15.3412 31.0546 15.3411 31.0548C15.341 31.0549 15.3409 31.0551 15.3408 31.0552C15.3406 31.0555 15.3405 31.0557 15.3403 31.056C15.34 31.0564 15.3398 31.0568 15.3396 31.0571C15.3392 31.0576 15.339 31.0579 15.3391 31.0577C15.3393 31.0575 15.3404 31.0559 15.3424 31.0531C15.3464 31.0474 15.3539 31.0369 15.3648 31.0226C15.3868 30.9938 15.4218 30.9502 15.4687 30.8991C15.5644 30.795 15.6995 30.6706 15.8641 30.5725C16.0268 30.4755 16.2068 30.4108 16.4029 30.4044C16.5939 30.3983 16.84 30.4459 17.1446 30.6346L17.7766 29.6146ZM14.3203 30.4249L12.8457 32.9789L13.885 33.5789L15.3595 31.0249L14.3203 30.4249ZM13.3653 33.2789C12.844 32.9819 12.844 32.982 12.8439 32.9821C12.8439 32.9821 12.8439 32.9822 12.8438 32.9822C12.8437 32.9824 12.8437 32.9825 12.8436 32.9827C12.8434 32.983 12.8431 32.9835 12.8428 32.984C12.8422 32.985 12.8415 32.9864 12.8405 32.9881C12.8386 32.9916 12.8359 32.9964 12.8324 33.0025C12.8256 33.0147 12.8159 33.0322 12.8037 33.0545C12.7792 33.0992 12.7445 33.1635 12.7024 33.2442C12.6182 33.4053 12.5036 33.6333 12.3805 33.9028C12.1376 34.4345 11.8479 35.1579 11.7052 35.8603L12.8812 36.0993C12.9971 35.5288 13.2435 34.9018 13.472 34.4013C13.5847 34.1547 13.6896 33.9461 13.766 33.7997C13.8042 33.7266 13.8351 33.6694 13.8561 33.631C13.8666 33.6118 13.8746 33.5974 13.8798 33.5881C13.8824 33.5834 13.8843 33.58 13.8855 33.578C13.8861 33.577 13.8865 33.5763 13.8867 33.5759C13.8868 33.5758 13.8868 33.5757 13.8868 33.5757C13.8868 33.5757 13.8868 33.5757 13.8868 33.5757C13.8868 33.5758 13.8867 33.5758 13.8867 33.5758C13.8867 33.5759 13.8867 33.5759 13.3653 33.2789ZM11.7052 35.8602C11.5442 36.652 11.7701 37.5637 11.9284 38.2474C12.0141 38.6179 12.0865 38.9369 12.1191 39.2178C12.1524 39.505 12.1336 39.6765 12.0957 39.7742L13.2147 40.2076C13.358 39.8376 13.3521 39.433 13.3111 39.0794C13.2693 38.7195 13.1799 38.3329 13.0975 37.9768C12.9194 37.2072 12.7832 36.581 12.8811 36.0994L11.7052 35.8602ZM12.0957 39.7742C11.9194 40.2296 11.8833 40.3319 11.8677 40.3856C11.8583 40.418 11.8683 40.3833 11.8734 40.3687C11.878 40.3555 11.8814 40.3477 11.8746 40.3643C11.8632 40.392 11.8394 40.4487 11.7821 40.5858L12.8895 41.0482C12.9445 40.9164 12.9714 40.8523 12.9844 40.8209C12.9897 40.8079 12.9987 40.786 13.0067 40.7631C13.0151 40.739 13.0262 40.6993 13.02 40.7206C13.0174 40.7296 13.0288 40.6878 13.2147 40.2076L12.0957 39.7742ZM32.6287 19.6847L28.8642 20.6146L29.1519 21.7796L32.9165 20.8497L32.6287 19.6847ZM32.2977 26.2917L28.8766 24.3165L28.2766 25.3558L31.6977 27.3309L32.2977 26.2917ZM21.3411 14.1666L22.4237 17.9114L23.5765 17.5781L22.4939 13.8334L21.3411 14.1666ZM28.3766 14.1502L26.4619 17.4667L27.5011 18.0667L29.4158 14.7502L28.3766 14.1502ZM16.3422 18.4655L19.7242 20.4181L20.3242 19.3788L16.9422 17.4262L16.3422 18.4655Z" fill="white"/>
<path d="M45.3438 31.422L36.5179 31.4219M45.3438 31.422L45.3438 27.0091L45.3438 22.5962M45.3438 31.422L37.2534 23.3317" stroke="white" stroke-width="1.2" stroke-linecap="round"/>
<path d="M46 38L35 38" stroke="white" stroke-width="1.2" stroke-linecap="round"/>
<path d="M46 16L35 16" stroke="white" stroke-width="1.2" stroke-linecap="round"/>
</svg>
