<svg width="76" height="15" viewBox="0 0 76 15" fill="none" xmlns="http://www.w3.org/2000/svg">
<mask id="path-1-outside-1_3897_17367" maskUnits="userSpaceOnUse" x="-1" y="-1" width="77" height="16" fill="black">
<rect fill="white" x="-1" y="-1" width="77" height="16"/>
<path d="M0.0675169 0.0705758H6.95353C9.94403 0.0705758 11.3212 1.70355 11.3212 3.84805C11.3212 5.24492 10.7704 6.18929 9.88501 6.83854H9.94403C11.0458 7.29105 12.2656 8.27477 12.2656 10.1832C12.2656 12.5244 10.2785 14 7.2093 14H0.0675169V0.0705758ZM6.95353 7.82226H1.89723V12.0129H7.87823C9.64892 12.0129 10.4162 11.1472 10.4162 10.0651C10.4162 8.29444 8.38976 7.82226 6.95353 7.82226ZM1.89723 5.83515H6.95353C8.46846 5.83515 9.51119 5.00883 9.51119 3.92674C9.51119 2.84466 8.46846 2.05768 6.95353 2.05768H1.89723V5.83515ZM22.1132 14.3935C17.5684 14.3935 14.5189 11.6194 14.5189 7.23203C14.5189 2.84466 17.5684 0.0705758 22.1132 0.0705758C26.6186 0.0705758 29.6878 2.84466 29.6878 7.23203C29.6878 11.6194 26.6186 14.3935 22.1132 14.3935ZM22.1132 2.05768C18.6702 2.05768 16.3486 4.06446 16.3486 7.23203C16.3486 10.3996 18.6702 12.4064 22.1132 12.4064C25.4972 12.4064 27.7991 10.3996 27.7991 7.23203C27.7991 4.06446 25.4972 2.05768 22.1132 2.05768ZM32.6339 0.267319H34.9358L43.2187 11.1472H43.7106V0.267319H45.5206V14.1967H43.199L34.9358 3.33651H34.4636V14.1967H32.6339V0.267319ZM48.9409 8.53054V0.267319H50.7509V8.51086C50.7509 10.9308 52.6396 12.4064 55.394 12.4064C58.1878 12.4064 59.9978 10.9308 59.9978 8.51086V0.267319H61.8079V8.53054C61.8079 12.1309 59.2502 14.3935 55.3744 14.3935C51.4788 14.3935 48.9409 12.1309 48.9409 8.53054ZM70.4327 14.3935C67.6587 14.3935 64.5501 13.213 64.5501 9.6323H66.3798C66.3798 11.4423 67.8751 12.4064 70.2557 12.4064C72.3608 12.4064 73.7774 11.6981 73.7774 10.4586C73.7774 9.08142 71.9083 8.53054 69.8622 7.90096C67.5406 7.21236 64.9633 6.44506 64.9633 3.78902C64.9633 1.64452 66.6946 0.0705758 69.8622 0.0705758C73.1281 0.0705758 75.312 1.74289 75.312 3.92674H73.5019C73.5019 2.72661 71.6919 2.05768 69.8425 2.05768C67.7767 2.05768 66.793 2.884 66.793 3.76935C66.793 4.89079 68.485 5.44167 70.4327 6.05157C72.833 6.7992 75.5874 7.66487 75.5874 10.4193C75.5874 12.5834 73.8167 14.3935 70.4327 14.3935Z"/>
</mask>
<path d="M0.0675169 0.0705758H6.95353C9.94403 0.0705758 11.3212 1.70355 11.3212 3.84805C11.3212 5.24492 10.7704 6.18929 9.88501 6.83854H9.94403C11.0458 7.29105 12.2656 8.27477 12.2656 10.1832C12.2656 12.5244 10.2785 14 7.2093 14H0.0675169V0.0705758ZM6.95353 7.82226H1.89723V12.0129H7.87823C9.64892 12.0129 10.4162 11.1472 10.4162 10.0651C10.4162 8.29444 8.38976 7.82226 6.95353 7.82226ZM1.89723 5.83515H6.95353C8.46846 5.83515 9.51119 5.00883 9.51119 3.92674C9.51119 2.84466 8.46846 2.05768 6.95353 2.05768H1.89723V5.83515ZM22.1132 14.3935C17.5684 14.3935 14.5189 11.6194 14.5189 7.23203C14.5189 2.84466 17.5684 0.0705758 22.1132 0.0705758C26.6186 0.0705758 29.6878 2.84466 29.6878 7.23203C29.6878 11.6194 26.6186 14.3935 22.1132 14.3935ZM22.1132 2.05768C18.6702 2.05768 16.3486 4.06446 16.3486 7.23203C16.3486 10.3996 18.6702 12.4064 22.1132 12.4064C25.4972 12.4064 27.7991 10.3996 27.7991 7.23203C27.7991 4.06446 25.4972 2.05768 22.1132 2.05768ZM32.6339 0.267319H34.9358L43.2187 11.1472H43.7106V0.267319H45.5206V14.1967H43.199L34.9358 3.33651H34.4636V14.1967H32.6339V0.267319ZM48.9409 8.53054V0.267319H50.7509V8.51086C50.7509 10.9308 52.6396 12.4064 55.394 12.4064C58.1878 12.4064 59.9978 10.9308 59.9978 8.51086V0.267319H61.8079V8.53054C61.8079 12.1309 59.2502 14.3935 55.3744 14.3935C51.4788 14.3935 48.9409 12.1309 48.9409 8.53054ZM70.4327 14.3935C67.6587 14.3935 64.5501 13.213 64.5501 9.6323H66.3798C66.3798 11.4423 67.8751 12.4064 70.2557 12.4064C72.3608 12.4064 73.7774 11.6981 73.7774 10.4586C73.7774 9.08142 71.9083 8.53054 69.8622 7.90096C67.5406 7.21236 64.9633 6.44506 64.9633 3.78902C64.9633 1.64452 66.6946 0.0705758 69.8622 0.0705758C73.1281 0.0705758 75.312 1.74289 75.312 3.92674H73.5019C73.5019 2.72661 71.6919 2.05768 69.8425 2.05768C67.7767 2.05768 66.793 2.884 66.793 3.76935C66.793 4.89079 68.485 5.44167 70.4327 6.05157C72.833 6.7992 75.5874 7.66487 75.5874 10.4193C75.5874 12.5834 73.8167 14.3935 70.4327 14.3935Z" fill="#FEF0D5"/>
<path d="M0.067517 0.0705758V-0.229424H-0.232483V0.0705758H0.067517ZM9.88501 6.83854L9.7076 6.59662L8.96861 7.13854H9.88501V6.83854ZM9.94403 6.83854L10.058 6.56104L10.0032 6.53854H9.94403V6.83854ZM0.067517 14H-0.232483V14.3H0.067517V14ZM1.89723 7.82226V7.52226H1.59723V7.82226H1.89723ZM1.89723 12.0129H1.59723V12.3129H1.89723V12.0129ZM1.89723 5.83515H1.59723V6.13515H1.89723V5.83515ZM1.89723 2.05768V1.75768H1.59723V2.05768H1.89723ZM0.067517 0.370576H6.95353V-0.229424H0.067517V0.370576ZM6.95353 0.370576C8.3954 0.370576 9.40547 0.763557 10.0531 1.37352C10.6993 1.98211 11.0212 2.84089 11.0212 3.84805H11.6212C11.6212 2.7107 11.2545 1.68075 10.4645 0.936729C9.67594 0.194079 8.50216 -0.229424 6.95353 -0.229424V0.370576ZM11.0212 3.84805C11.0212 5.14998 10.5154 6.00425 9.7076 6.59662L10.0624 7.08047C11.0253 6.37433 11.6212 5.33987 11.6212 3.84805H11.0212ZM9.88501 7.13854H9.94403V6.53854H9.88501V7.13854ZM9.83005 7.11605C10.8646 7.54096 11.9656 8.43895 11.9656 10.1832H12.5656C12.5656 8.11059 11.227 7.04115 10.058 6.56104L9.83005 7.11605ZM11.9656 10.1832C11.9656 11.2589 11.5136 12.1245 10.7082 12.7297C9.89426 13.3413 8.69978 13.7 7.2093 13.7V14.3C8.78801 14.3 10.1217 13.9209 11.0686 13.2094C12.024 12.4915 12.5656 11.4487 12.5656 10.1832H11.9656ZM7.2093 13.7H0.067517V14.3H7.2093V13.7ZM0.367517 14V0.0705758H-0.232483V14H0.367517ZM6.95353 7.52226H1.89723V8.12226H6.95353V7.52226ZM1.59723 7.82226V12.0129H2.19723V7.82226H1.59723ZM1.89723 12.3129H7.87823V11.7129H1.89723V12.3129ZM7.87823 12.3129C8.80913 12.3129 9.52146 12.0854 10.0057 11.6732C10.4953 11.2565 10.7162 10.6808 10.7162 10.0651H10.1162C10.1162 10.5316 9.95344 10.9298 9.61678 11.2163C9.27467 11.5075 8.71801 11.7129 7.87823 11.7129V12.3129ZM10.7162 10.0651C10.7162 9.03414 10.1132 8.38507 9.35646 8.01079C8.61307 7.64308 7.69597 7.52226 6.95353 7.52226V8.12226C7.64732 8.12226 8.46156 8.23753 9.09045 8.54859C9.70604 8.85308 10.1162 9.32543 10.1162 10.0651H10.7162ZM1.89723 6.13515H6.95353V5.53515H1.89723V6.13515ZM6.95353 6.13515C8.55235 6.13515 9.81119 5.2459 9.81119 3.92674H9.21119C9.21119 4.77177 8.38457 5.53515 6.95353 5.53515V6.13515ZM9.81119 3.92674C9.81119 3.27929 9.49583 2.72661 8.97855 2.34501C8.46603 1.96692 7.76009 1.75768 6.95353 1.75768V2.35768C7.6619 2.35768 8.23479 2.54193 8.62236 2.82785C9.00519 3.11026 9.21119 3.49211 9.21119 3.92674H9.81119ZM6.95353 1.75768H1.89723V2.35768H6.95353V1.75768ZM1.59723 2.05768V5.83515H2.19723V2.05768H1.59723ZM22.1132 14.0935C19.9015 14.0935 18.0812 13.4192 16.8165 12.2387C15.5541 11.0603 14.8189 9.35306 14.8189 7.23203H14.2189C14.2189 9.49837 15.0085 11.3719 16.4071 12.6773C17.8034 13.9807 19.7801 14.6935 22.1132 14.6935V14.0935ZM14.8189 7.23203C14.8189 5.111 15.5541 3.40376 16.8165 2.22534C18.0812 1.04483 19.9015 0.370576 22.1132 0.370576V-0.229424C19.7801 -0.229424 17.8034 0.483356 16.4071 1.78673C15.0085 3.0922 14.2189 4.96569 14.2189 7.23203H14.8189ZM22.1132 0.370576C24.3047 0.370576 26.1203 1.0445 27.3853 2.22534C28.6481 3.4041 29.3878 5.11155 29.3878 7.23203H29.9878C29.9878 4.96514 29.1929 3.09186 27.7948 1.78673C26.3988 0.483695 24.4272 -0.229424 22.1132 -0.229424V0.370576ZM29.3878 7.23203C29.3878 9.35251 28.6481 11.06 27.3853 12.2387C26.1203 13.4196 24.3047 14.0935 22.1132 14.0935V14.6935C24.4272 14.6935 26.3988 13.9804 27.7948 12.6773C29.1929 11.3722 29.9878 9.49893 29.9878 7.23203H29.3878ZM22.1132 1.75768C20.3347 1.75768 18.8174 2.27641 17.7406 3.23271C16.6601 4.19228 16.0486 5.57035 16.0486 7.23203H16.6486C16.6486 5.72615 17.198 4.51704 18.139 3.68133C19.0837 2.84235 20.4487 2.35768 22.1132 2.35768V1.75768ZM16.0486 7.23203C16.0486 8.89372 16.6601 10.2718 17.7406 11.2314C18.8174 12.1877 20.3347 12.7064 22.1132 12.7064V12.1064C20.4487 12.1064 19.0837 11.6217 18.139 10.7827C17.198 9.94703 16.6486 8.73791 16.6486 7.23203H16.0486ZM22.1132 12.7064C23.8635 12.7064 25.3615 12.1869 26.4257 11.2301C27.4933 10.2704 28.0991 8.89279 28.0991 7.23203H27.4991C27.4991 8.73884 26.954 9.94842 26.0246 10.7839C25.0919 11.6225 23.7469 12.1064 22.1132 12.1064V12.7064ZM28.0991 7.23203C28.0991 5.57127 27.4933 4.19367 26.4257 3.23392C25.3615 2.27715 23.8635 1.75768 22.1132 1.75768V2.35768C23.7469 2.35768 25.0919 2.84161 26.0246 3.68012C26.954 4.51565 27.4991 5.72523 27.4991 7.23203H28.0991ZM32.6339 0.267319V-0.0326811H32.3339V0.267319H32.6339ZM34.9358 0.267319L35.1745 0.085597L35.0845 -0.0326811H34.9358V0.267319ZM43.2187 11.1472L42.98 11.3289L43.07 11.4472H43.2187V11.1472ZM43.7106 11.1472V11.4472H44.0106V11.1472H43.7106ZM43.7106 0.267319V-0.0326811H43.4106V0.267319H43.7106ZM45.5206 0.267319H45.8206V-0.0326811H45.5206V0.267319ZM45.5206 14.1967V14.4967H45.8206V14.1967H45.5206ZM43.199 14.1967L42.9603 14.3784L43.0503 14.4967H43.199V14.1967ZM34.9358 3.33651L35.1746 3.15486L35.0845 3.03651H34.9358V3.33651ZM34.4636 3.33651V3.03651H34.1636V3.33651H34.4636ZM34.4636 14.1967V14.4967H34.7636V14.1967H34.4636ZM32.6339 14.1967H32.3339V14.4967H32.6339V14.1967ZM32.6339 0.567319H34.9358V-0.0326811H32.6339V0.567319ZM34.6971 0.449041L42.98 11.3289L43.4574 10.9655L35.1745 0.085597L34.6971 0.449041ZM43.2187 11.4472H43.7106V10.8472H43.2187V11.4472ZM44.0106 11.1472V0.267319H43.4106V11.1472H44.0106ZM43.7106 0.567319H45.5206V-0.0326811H43.7106V0.567319ZM45.2206 0.267319V14.1967H45.8206V0.267319H45.2206ZM45.5206 13.8967H43.199V14.4967H45.5206V13.8967ZM43.4378 14.0151L35.1746 3.15486L34.6971 3.51817L42.9603 14.3784L43.4378 14.0151ZM34.9358 3.03651H34.4636V3.63651H34.9358V3.03651ZM34.1636 3.33651V14.1967H34.7636V3.33651H34.1636ZM34.4636 13.8967H32.6339V14.4967H34.4636V13.8967ZM32.9339 14.1967V0.267319H32.3339V14.1967H32.9339ZM48.9409 0.267319V-0.0326811H48.6409V0.267319H48.9409ZM50.7509 0.267319H51.0509V-0.0326811H50.7509V0.267319ZM59.9978 0.267319V-0.0326811H59.6978V0.267319H59.9978ZM61.8079 0.267319H62.1079V-0.0326811H61.8079V0.267319ZM49.2409 8.53054V0.267319H48.6409V8.53054H49.2409ZM48.9409 0.567319H50.7509V-0.0326811H48.9409V0.567319ZM50.4509 0.267319V8.51086H51.0509V0.267319H50.4509ZM50.4509 8.51086C50.4509 9.80596 50.9598 10.8666 51.849 11.5978C52.732 12.3239 53.966 12.7064 55.394 12.7064V12.1064C54.0676 12.1064 52.98 11.7511 52.2301 11.1344C51.4864 10.5228 51.0509 9.63571 51.0509 8.51086H50.4509ZM55.394 12.7064C56.8409 12.7064 58.0667 12.3243 58.9362 11.5961C59.8118 10.8628 60.2978 9.80173 60.2978 8.51086H59.6978C59.6978 9.63994 59.2788 10.5266 58.551 11.1361C57.8171 11.7507 56.7409 12.1064 55.394 12.1064V12.7064ZM60.2978 8.51086V0.267319H59.6978V8.51086H60.2978ZM59.9978 0.567319H61.8079V-0.0326811H59.9978V0.567319ZM61.5079 0.267319V8.53054H62.1079V0.267319H61.5079ZM61.5079 8.53054C61.5079 10.2558 60.8974 11.6371 59.8434 12.5896C58.7861 13.5451 57.255 14.0935 55.3744 14.0935V14.6935C57.3695 14.6935 59.0552 14.1106 60.2457 13.0347C61.4395 11.9559 62.1079 10.4057 62.1079 8.53054H61.5079ZM55.3744 14.0935C53.4835 14.0935 51.9527 13.5449 50.8982 12.5898C49.8469 11.6376 49.2409 10.2565 49.2409 8.53054H48.6409C48.6409 10.405 49.3038 11.9553 50.4954 13.0345C51.6837 14.1108 53.3697 14.6935 55.3744 14.6935V14.0935ZM64.5501 9.6323V9.3323H64.2501V9.6323H64.5501ZM66.3798 9.6323H66.6798V9.3323H66.3798V9.6323ZM69.8622 7.90096L69.9504 7.61421L69.9475 7.61334L69.8622 7.90096ZM75.312 3.92674V4.22674H75.612V3.92674H75.312ZM73.5019 3.92674H73.2019V4.22674H73.5019V3.92674ZM70.4327 6.05157L70.3431 6.33786L70.3435 6.338L70.4327 6.05157ZM70.4327 14.0935C69.0808 14.0935 67.6748 13.8047 66.6166 13.1054C65.5746 12.4168 64.8501 11.3194 64.8501 9.6323H64.2501C64.2501 11.5259 65.08 12.8091 66.2858 13.606C67.4753 14.3921 69.0106 14.6935 70.4327 14.6935V14.0935ZM64.5501 9.9323H66.3798V9.3323H64.5501V9.9323ZM66.0798 9.6323C66.0798 10.6326 66.4993 11.4193 67.2537 11.9443C67.9938 12.4594 69.0312 12.7064 70.2557 12.7064V12.1064C69.0995 12.1064 68.1991 11.8713 67.5964 11.4519C67.008 11.0423 66.6798 10.442 66.6798 9.6323H66.0798ZM70.2557 12.7064C71.3355 12.7064 72.2709 12.5257 72.9481 12.1615C73.6348 11.7921 74.0774 11.2171 74.0774 10.4586H73.4774C73.4774 10.9396 73.2116 11.3385 72.6639 11.6331C72.1064 11.9329 71.281 12.1064 70.2557 12.1064V12.7064ZM74.0774 10.4586C74.0774 9.60103 73.4838 9.04076 72.7291 8.63517C71.9742 8.2295 70.9621 7.92552 69.9504 7.61422L69.774 8.18769C70.8084 8.50598 71.7539 8.79223 72.4451 9.16369C73.1364 9.53523 73.4774 9.939 73.4774 10.4586H74.0774ZM69.9475 7.61334C68.7758 7.26581 67.5969 6.91289 66.7061 6.33155C65.8362 5.7638 65.2633 4.99366 65.2633 3.78902H64.6633C64.6633 5.24042 65.3791 6.18194 66.3782 6.83401C67.3565 7.47248 68.627 7.84751 69.7769 8.18857L69.9475 7.61334ZM65.2633 3.78902C65.2633 2.80448 65.6573 1.96253 66.4121 1.36008C67.1731 0.752605 68.325 0.370576 69.8622 0.370576V-0.229424C68.2318 -0.229424 66.9343 0.17552 66.0377 0.891147C65.1349 1.61179 64.6633 2.62906 64.6633 3.78902H65.2633ZM69.8622 0.370576C71.4468 0.370576 72.7436 0.77652 73.6358 1.42269C74.5241 2.06599 75.012 2.94488 75.012 3.92674H75.612C75.612 2.72476 75.0079 1.67557 73.9878 0.936743C72.9716 0.20079 71.5436 -0.229424 69.8622 -0.229424V0.370576ZM75.312 3.62674H73.5019V4.22674H75.312V3.62674ZM73.8019 3.92674C73.8019 3.15061 73.2145 2.60529 72.492 2.27003C71.7584 1.92962 70.7978 1.75768 69.8425 1.75768V2.35768C70.7367 2.35768 71.6057 2.52021 72.2395 2.81429C72.8843 3.11353 73.2019 3.50274 73.2019 3.92674H73.8019ZM69.8425 1.75768C68.7741 1.75768 67.9504 1.97074 67.3833 2.3276C66.8112 2.68762 66.493 3.20266 66.493 3.76935H67.093C67.093 3.4507 67.2667 3.1099 67.7029 2.83542C68.1441 2.55779 68.8452 2.35768 69.8425 2.35768V1.75768ZM66.493 3.76935C66.493 4.5092 67.0575 5.00365 67.7417 5.36721C68.4378 5.73708 69.3771 6.03536 70.3431 6.33786L70.5224 5.76528C69.5407 5.45787 68.6601 5.17577 68.0232 4.83736C67.3745 4.49264 67.093 4.15094 67.093 3.76935H66.493ZM70.3435 6.338C71.5536 6.71492 72.7983 7.1069 73.7446 7.73307C74.6728 8.34724 75.2874 9.168 75.2874 10.4193H75.8874C75.8874 8.91613 75.1248 7.92686 74.0757 7.23269C73.0448 6.55052 71.7121 6.13585 70.522 5.76514L70.3435 6.338ZM75.2874 10.4193C75.2874 11.4146 74.8825 12.323 74.0868 12.9877C73.2877 13.6551 72.0728 14.0935 70.4327 14.0935V14.6935C72.1767 14.6935 73.5392 14.2268 74.4714 13.4482C75.407 12.6668 75.8874 11.5881 75.8874 10.4193H75.2874Z" fill="#FEF0D5" mask="url(#path-1-outside-1_3897_17367)"/>
</svg>
