<svg width="34" height="56" viewBox="0 0 34 56" fill="none" xmlns="http://www.w3.org/2000/svg">
<path d="M21.5946 39.5524V36.6453C21.5946 35.6763 21.6712 34.8475 21.8243 34.159C21.9775 33.4704 22.22 32.8584 22.5518 32.3229C22.8836 31.7874 23.3048 31.2646 23.8153 30.7546C24.3258 30.2446 24.9384 29.6581 25.6532 28.995C26.7763 27.924 27.8356 26.904 28.8311 25.9349C29.8266 24.9659 30.7072 23.9459 31.473 22.8748C32.2387 21.8038 32.8514 20.6307 33.3108 19.3557C33.7703 18.0806 34 16.6016 34 14.9185C34 12.5214 33.5916 10.3921 32.7748 8.53055C31.958 6.66898 30.8221 5.11342 29.3671 3.86388C27.9122 2.61433 26.202 1.65805 24.2365 0.995024C22.271 0.332 20.1396 0.000488281 17.8423 0.000488281C15.3919 0.000488281 13.1456 0.344751 11.1036 1.03328C9.06156 1.7218 7.26201 2.72909 5.70496 4.05513C4.1479 5.38118 2.88438 7.00049 1.91441 8.91306C0.944444 10.8256 0.306306 13.006 0 15.454L9.8018 16.2191C10.006 14.128 10.7973 12.3557 12.1757 10.9021C13.5541 9.44858 15.3153 8.7218 17.4595 8.7218C19.4505 8.7218 21.0968 9.34657 22.3986 10.5961C23.7005 11.8457 24.3514 13.465 24.3514 15.454C24.3514 17.4941 23.7132 19.1517 22.4369 20.4267L16.5405 26.3939C15.7748 27.21 15.1239 27.9112 14.5878 28.4978C14.0518 29.0843 13.6179 29.6963 13.286 30.3338C12.9542 30.9714 12.7245 31.6854 12.5968 32.4759C12.4692 33.2664 12.4054 34.2227 12.4054 35.3448V39.5524H21.5946Z" fill="white"/>
<path d="M17 56.0004C18.6847 56.0004 20.1268 55.4138 21.3265 54.2408C22.5262 53.0678 23.1261 51.6652 23.1261 50.0331C23.1261 48.4011 22.5135 47.024 21.2883 45.902C20.063 44.78 18.6336 44.2189 17 44.2189C15.3153 44.2189 13.8731 44.8055 12.6734 45.9785C11.4737 47.1515 10.8738 48.5541 10.8738 50.1862C10.8738 51.0022 11.0398 51.7672 11.3716 52.4812C11.7034 53.1953 12.1501 53.8073 12.7117 54.3173C13.2732 54.8273 13.9241 55.2353 14.6644 55.5413C15.4046 55.8474 16.1832 56.0004 17 56.0004Z" fill="white"/>
</svg>
