<svg width="199" height="28" viewBox="0 0 199 28" fill="none" xmlns="http://www.w3.org/2000/svg">
<path d="M39.0172 7.15726V21.2568H37.8358V7.15726H39.0172ZM43.8494 7.15726V8.18374H33.0132V7.15726H43.8494ZM55.4916 20.24V21.2568H47.5605V20.24H55.4916ZM47.9188 7.15726V21.2568H46.7277V7.15726H47.9188ZM54.5038 13.4808V14.4976H47.5605V13.4808H54.5038ZM55.4431 7.15726V8.18374H47.5605V7.15726H55.4431ZM67.831 20.24V21.2568H58.1181V20.24H67.831ZM67.5211 8.01912L58.4377 21.2568H57.6921V20.3466L66.7561 7.15726H67.5211V8.01912ZM66.9982 7.15726V8.17406H57.9438V7.15726H66.9982ZM81.2162 13.4517V14.9624C81.2162 15.9501 81.0871 16.8443 80.8289 17.6448C80.5771 18.4389 80.2091 19.1199 79.7249 19.6881C79.2472 20.2562 78.6726 20.6919 78.0012 20.9954C77.3298 21.2988 76.5745 21.4505 75.7352 21.4505C74.9153 21.4505 74.1664 21.2988 73.4886 20.9954C72.8172 20.6919 72.2394 20.2562 71.7552 19.6881C71.271 19.1199 70.8965 18.4389 70.6319 17.6448C70.3672 16.8443 70.2348 15.9501 70.2348 14.9624V13.4517C70.2348 12.464 70.3639 11.5731 70.6222 10.779C70.8869 9.97847 71.2613 9.29415 71.7455 8.72603C72.2297 8.15792 72.8075 7.72215 73.4789 7.41872C74.1503 7.1153 74.8959 6.96358 75.7158 6.96358C76.5551 6.96358 77.3104 7.1153 77.9818 7.41872C78.6533 7.72215 79.231 8.15792 79.7152 8.72603C80.1994 9.29415 80.5706 9.97847 80.8289 10.779C81.0871 11.5731 81.2162 12.464 81.2162 13.4517ZM80.0348 14.9624V13.4323C80.0348 12.5995 79.938 11.8507 79.7443 11.1857C79.5571 10.5208 79.2762 9.95264 78.9018 9.48137C78.5338 9.01009 78.0819 8.64856 77.5461 8.39678C77.0102 8.145 76.4002 8.01912 75.7158 8.01912C75.0509 8.01912 74.4537 8.145 73.9243 8.39678C73.395 8.64856 72.9431 9.01009 72.5686 9.48137C72.2006 9.95264 71.9166 10.5208 71.7164 11.1857C71.5228 11.8507 71.4259 12.5995 71.4259 13.4323V14.9624C71.4259 15.8016 71.5228 16.557 71.7164 17.2284C71.9166 17.8933 72.2039 18.4647 72.5783 18.9424C72.9527 19.4137 73.4046 19.7752 73.934 20.027C74.4699 20.2788 75.0703 20.4047 75.7352 20.4047C76.426 20.4047 77.0361 20.2788 77.5654 20.027C78.0948 19.7752 78.5435 19.4137 78.9115 18.9424C79.2795 18.4647 79.5571 17.8933 79.7443 17.2284C79.938 16.557 80.0348 15.8016 80.0348 14.9624ZM92.7906 17.79C92.7906 17.4027 92.7261 17.0573 92.5969 16.7539C92.4678 16.4505 92.2548 16.1793 91.9578 15.9404C91.6673 15.6951 91.2735 15.4692 90.7764 15.2626C90.2857 15.0495 89.6724 14.8397 88.9365 14.6331C88.2328 14.433 87.5969 14.2135 87.0288 13.9746C86.4607 13.7358 85.9732 13.4614 85.5665 13.1515C85.1663 12.8416 84.8596 12.4801 84.6466 12.0669C84.4335 11.6473 84.327 11.1599 84.327 10.6047C84.327 10.0624 84.4432 9.56852 84.6756 9.12307C84.908 8.67761 85.234 8.29349 85.6537 7.9707C86.0798 7.6479 86.5801 7.39935 87.1547 7.22505C87.7357 7.05074 88.3716 6.96358 89.0624 6.96358C90.0501 6.96358 90.9023 7.1508 91.6189 7.52524C92.3419 7.89968 92.9004 8.40647 93.2942 9.0456C93.6944 9.67827 93.8946 10.3884 93.8946 11.176H92.7035C92.7035 10.5627 92.5582 10.0172 92.2677 9.53947C91.9836 9.05528 91.5705 8.67761 91.0282 8.40647C90.4923 8.12887 89.8371 7.99006 89.0624 7.99006C88.2877 7.99006 87.6356 8.1095 87.1062 8.34836C86.5833 8.58077 86.1863 8.89388 85.9151 9.28769C85.6504 9.67504 85.5181 10.1076 85.5181 10.5853C85.5181 10.921 85.5827 11.2309 85.7118 11.515C85.8409 11.7926 86.0507 12.054 86.3412 12.2993C86.6382 12.5382 87.0288 12.7642 87.513 12.9772C87.9971 13.1838 88.5943 13.3807 89.3045 13.5679C90.0533 13.7745 90.7183 14.0037 91.2993 14.2555C91.8803 14.5072 92.371 14.7978 92.7712 15.127C93.1715 15.4498 93.4749 15.8275 93.6815 16.26C93.8881 16.6926 93.9914 17.1961 93.9914 17.7707C93.9914 18.3452 93.8687 18.8617 93.6234 19.3201C93.3846 19.772 93.0456 20.1561 92.6066 20.4725C92.1741 20.7888 91.6608 21.0309 91.0669 21.1987C90.4794 21.3666 89.8371 21.4505 89.1398 21.4505C88.5136 21.4505 87.8906 21.3698 87.2709 21.2084C86.6511 21.047 86.083 20.7985 85.5665 20.4628C85.0565 20.1206 84.6466 19.6816 84.3367 19.1458C84.0333 18.6099 83.8815 17.9708 83.8815 17.2284H85.063C85.063 17.8223 85.1824 18.3227 85.4213 18.7294C85.6601 19.1361 85.9765 19.4653 86.3703 19.7171C86.7705 19.9689 87.2095 20.1529 87.6873 20.2691C88.1715 20.3788 88.6556 20.4337 89.1398 20.4337C89.8823 20.4337 90.5246 20.324 91.0669 20.1045C91.6156 19.885 92.0385 19.5783 92.3355 19.1845C92.6389 18.7842 92.7906 18.3194 92.7906 17.79ZM107.205 7.99975L102.324 21.2568H101.084L106.411 7.15726H107.272L107.205 7.99975ZM111.64 21.2568L106.749 7.99975L106.682 7.15726H107.544L112.879 21.2568H111.64ZM110.768 16.2794V17.3059H103.283V16.2794H110.768ZM115.525 7.15726H120.106C121.081 7.15726 121.926 7.31543 122.643 7.63176C123.359 7.9481 123.911 8.41615 124.299 9.03591C124.693 9.64922 124.889 10.4046 124.889 11.3019C124.889 11.9669 124.747 12.5705 124.463 13.1128C124.186 13.6551 123.802 14.1102 123.311 14.4782C122.82 14.8397 122.252 15.0883 121.607 15.2238L121.19 15.3788H116.3L116.281 14.362H120.377C121.113 14.362 121.726 14.22 122.217 13.9359C122.707 13.6518 123.075 13.2774 123.321 12.8126C123.572 12.3413 123.698 11.8378 123.698 11.3019C123.698 10.6628 123.56 10.1108 123.282 9.64599C123.011 9.17471 122.607 8.81319 122.072 8.56141C121.536 8.30963 120.88 8.18374 120.106 8.18374H116.716V21.2568H115.525V7.15726ZM124.231 21.2568L120.58 14.9527L121.858 14.943L125.5 21.1309V21.2568H124.231ZM132.697 7.15726V21.2568H131.515V7.15726H132.697ZM137.529 7.15726V8.18374H126.693V7.15726H137.529ZM149.019 17.5286L152.079 7.15726H153.037L152.263 10.2367L148.999 21.2568H148.079L149.019 17.5286ZM145.465 7.15726L148.041 17.4317L148.815 21.2568H147.857L144.244 7.15726H145.465ZM157.163 17.4317L159.7 7.15726H160.92L157.318 21.2568H156.359L157.163 17.4317ZM153.144 7.15726L156.165 17.5286L157.095 21.2568H156.175L152.979 10.2367L152.195 7.15726H153.144ZM168.011 7.99975L163.13 21.2568H161.891L167.217 7.15726H168.079L168.011 7.99975ZM172.446 21.2568L167.556 7.99975L167.488 7.15726H168.35L173.685 21.2568H172.446ZM171.574 16.2794V17.3059H164.089V16.2794H171.574ZM184.514 20.24V21.2568H177.203V20.24H184.514ZM177.552 7.15726V21.2568H176.36V7.15726H177.552ZM188.593 7.15726V21.2568H187.402V7.15726H188.593ZM197.309 7.15726L191.227 13.6163L188.167 16.628L188.051 15.3013L190.511 12.7448L195.817 7.15726H197.309ZM196.321 21.2568L190.385 14.0134L191.101 13.0547L197.764 21.2568H196.321Z" fill="white"/>
<path d="M19.6974 19.9995C19.419 15.021 13.2216 12.7581 12.6285 12.5257C12.6043 12.5134 12.6043 12.489 12.6164 12.4645L19.0075 5.9815V5.28427C19.0075 5.17418 18.9106 5.07632 18.8017 5.07632H7.02422V1.17428V0L2.67877 0.917408V1.57794H2.92086C2.92086 1.57794 3.98604 1.57794 3.98604 2.65437V5.06409H0.621043C0.560522 5.06409 0.5 5.12525 0.5 5.18641V6.71542H3.99814V15.021C3.99814 17.6265 5.65643 19.4368 8.56146 19.1922C9.17878 19.1432 9.74769 18.8986 10.2319 18.5806C10.4497 18.4338 10.5829 18.2014 10.5829 17.9323V17.1127C9.63875 17.7488 8.83986 17.7121 8.83986 17.7121C7.00001 17.7121 7.03632 15.3513 7.03632 15.3513V6.71542H15.5093L9.40877 12.9293C9.39666 13.7489 9.38456 14.385 9.38456 14.3972C9.38456 14.4216 9.39666 14.4339 9.42087 14.4339C15.0131 15.388 16.5261 19.0454 16.5261 20.1096C16.5261 20.1096 17.1313 25.2838 12.0112 25.6385C12.0112 25.6385 8.6583 25.7853 8.06519 24.4275C8.04098 24.3786 8.06519 24.3297 8.11361 24.3052C8.6704 24.0483 9.04564 23.5468 9.04564 22.874C9.04564 21.871 8.44042 21.0514 7.16947 21.0514C6.1406 21.0514 5.2933 21.871 5.2933 22.874C5.2933 22.874 4.80913 27.2287 11.9991 27.1063C20.2058 26.9596 19.6974 19.9995 19.6974 19.9995Z" fill="white"/>
</svg>
