<svg width="25" height="25" viewBox="0 0 25 25" fill="none" xmlns="http://www.w3.org/2000/svg">
<path d="M10.8335 2.12882C11.3581 0.514484 13.6419 0.514483 14.1665 2.12881L15.8111 7.19047C16.0457 7.91242 16.7184 8.40122 17.4775 8.40122H22.7997C24.4971 8.40122 25.2028 10.5733 23.8296 11.571L19.5239 14.6993C18.9098 15.1455 18.6528 15.9364 18.8874 16.6583L20.532 21.72C21.0565 23.3343 19.2089 24.6767 17.8356 23.679L13.5299 20.5507C12.9158 20.1045 12.0842 20.1045 11.4701 20.5507L7.16438 23.679C5.79114 24.6767 3.94347 23.3343 4.468 21.72L6.11263 16.6583C6.3472 15.9364 6.09023 15.1455 5.4761 14.6993L1.1704 11.571C-0.202834 10.5733 0.502913 8.40122 2.20032 8.40122H7.52246C8.28157 8.40122 8.95434 7.91242 9.18892 7.19047L10.8335 2.12882Z" fill="#FFE033"/>
</svg>
