<svg width="430" height="110" viewBox="0 0 430 110" fill="none" xmlns="http://www.w3.org/2000/svg">
<path d="M62.5625 81.9844V109H60.2988V81.9844H62.5625ZM71.8213 81.9844V83.9512H51.0586V81.9844H71.8213ZM95.0107 107.052V109H79.8145V107.052H95.0107ZM80.501 81.9844V109H78.2188V81.9844H80.501ZM93.1182 94.1006V96.0488H79.8145V94.1006H93.1182ZM94.918 81.9844V83.9512H79.8145V81.9844H94.918ZM119.536 107.052V109H100.926V107.052H119.536ZM118.942 83.6357L101.538 109H100.109V107.256L117.477 81.9844H118.942V83.6357ZM117.94 81.9844V83.9326H100.592V81.9844H117.94ZM146.065 94.0449V96.9395C146.065 98.832 145.818 100.545 145.323 102.079C144.841 103.601 144.136 104.906 143.208 105.994C142.293 107.083 141.192 107.918 139.905 108.499C138.619 109.08 137.172 109.371 135.563 109.371C133.993 109.371 132.558 109.08 131.259 108.499C129.972 107.918 128.865 107.083 127.938 105.994C127.01 104.906 126.292 103.601 125.785 102.079C125.278 100.545 125.024 98.832 125.024 96.9395V94.0449C125.024 92.1523 125.272 90.4453 125.767 88.9238C126.274 87.39 126.991 86.0788 127.919 84.9902C128.847 83.9017 129.954 83.0667 131.24 82.4854C132.527 81.904 133.955 81.6133 135.526 81.6133C137.134 81.6133 138.582 81.904 139.868 82.4854C141.155 83.0667 142.262 83.9017 143.189 84.9902C144.117 86.0788 144.828 87.39 145.323 88.9238C145.818 90.4453 146.065 92.1523 146.065 94.0449ZM143.802 96.9395V94.0078C143.802 92.4121 143.616 90.9772 143.245 89.7031C142.886 88.429 142.348 87.3405 141.631 86.4375C140.926 85.5345 140.06 84.8418 139.033 84.3594C138.007 83.877 136.838 83.6357 135.526 83.6357C134.252 83.6357 133.108 83.877 132.094 84.3594C131.079 84.8418 130.214 85.5345 129.496 86.4375C128.791 87.3405 128.247 88.429 127.863 89.7031C127.492 90.9772 127.307 92.4121 127.307 94.0078V96.9395C127.307 98.5475 127.492 99.9948 127.863 101.281C128.247 102.555 128.797 103.65 129.515 104.565C130.232 105.468 131.098 106.161 132.112 106.644C133.139 107.126 134.289 107.367 135.563 107.367C136.887 107.367 138.056 107.126 139.07 106.644C140.085 106.161 140.944 105.468 141.649 104.565C142.354 103.65 142.886 102.555 143.245 101.281C143.616 99.9948 143.802 98.5475 143.802 96.9395ZM169.125 102.357C169.125 101.615 169.001 100.953 168.754 100.372C168.507 99.7907 168.098 99.2712 167.529 98.8135C166.973 98.3434 166.218 97.9105 165.266 97.5146C164.326 97.1064 163.15 96.7044 161.74 96.3086C160.392 95.9251 159.174 95.5046 158.085 95.0469C156.996 94.5892 156.062 94.0635 155.283 93.4697C154.516 92.876 153.929 92.1833 153.521 91.3916C153.112 90.5876 152.908 89.6536 152.908 88.5898C152.908 87.5508 153.131 86.6045 153.576 85.751C154.021 84.8975 154.646 84.1615 155.45 83.543C156.267 82.9245 157.225 82.4482 158.326 82.1143C159.439 81.7803 160.658 81.6133 161.981 81.6133C163.874 81.6133 165.507 81.972 166.88 82.6895C168.265 83.4069 169.335 84.3779 170.09 85.6025C170.857 86.8148 171.24 88.1755 171.24 89.6846H168.958C168.958 88.5094 168.68 87.4642 168.123 86.5488C167.579 85.6211 166.787 84.8975 165.748 84.3779C164.721 83.846 163.466 83.5801 161.981 83.5801C160.497 83.5801 159.248 83.8089 158.233 84.2666C157.231 84.7119 156.471 85.3118 155.951 86.0664C155.444 86.8086 155.19 87.6374 155.19 88.5527C155.19 89.196 155.314 89.7897 155.562 90.334C155.809 90.8659 156.211 91.3669 156.768 91.8369C157.337 92.2946 158.085 92.7275 159.013 93.1357C159.94 93.5316 161.085 93.9089 162.445 94.2676C163.88 94.6634 165.154 95.1025 166.268 95.585C167.381 96.0674 168.321 96.624 169.088 97.2549C169.855 97.8734 170.436 98.597 170.832 99.4258C171.228 100.255 171.426 101.219 171.426 102.32C171.426 103.421 171.191 104.411 170.721 105.289C170.263 106.155 169.614 106.891 168.772 107.497C167.944 108.103 166.96 108.567 165.822 108.889C164.697 109.21 163.466 109.371 162.13 109.371C160.93 109.371 159.736 109.216 158.549 108.907C157.361 108.598 156.273 108.122 155.283 107.479C154.306 106.823 153.521 105.982 152.927 104.955C152.345 103.928 152.055 102.704 152.055 101.281H154.318C154.318 102.419 154.547 103.378 155.005 104.157C155.463 104.937 156.069 105.567 156.823 106.05C157.59 106.532 158.431 106.885 159.347 107.107C160.274 107.318 161.202 107.423 162.13 107.423C163.552 107.423 164.783 107.213 165.822 106.792C166.874 106.371 167.684 105.784 168.253 105.029C168.834 104.262 169.125 103.372 169.125 102.357ZM198.508 83.5986L189.156 109H186.781L196.986 81.9844H198.638L198.508 83.5986ZM207.006 109L197.636 83.5986L197.506 81.9844H199.157L209.381 109H207.006ZM205.336 99.4629V101.43H190.993V99.4629H205.336ZM215.333 81.9844H224.109C225.977 81.9844 227.598 82.2874 228.971 82.8936C230.344 83.4997 231.401 84.3965 232.144 85.584C232.898 86.7591 233.275 88.2064 233.275 89.9258C233.275 91.1999 233.003 92.3564 232.459 93.3955C231.927 94.4346 231.191 95.3066 230.251 96.0117C229.311 96.7044 228.222 97.1807 226.985 97.4404L226.188 97.7373H216.817L216.78 95.7891H224.629C226.039 95.7891 227.214 95.5169 228.154 94.9727C229.094 94.4284 229.799 93.7109 230.27 92.8203C230.752 91.9173 230.993 90.9525 230.993 89.9258C230.993 88.7012 230.727 87.6436 230.195 86.7529C229.676 85.8499 228.903 85.1572 227.876 84.6748C226.849 84.1924 225.594 83.9512 224.109 83.9512H217.615V109H215.333V81.9844ZM232.014 109L225.019 96.9209L227.468 96.9023L234.444 108.759V109H232.014ZM249.117 81.9844V109H246.854V81.9844H249.117ZM258.376 81.9844V83.9512H237.613V81.9844H258.376ZM282.155 101.856L288.019 81.9844H289.855L288.371 87.8848L282.118 109H280.355L282.155 101.856ZM275.346 81.9844L280.281 101.671L281.766 109H279.929L273.008 81.9844H275.346ZM297.76 101.671L302.621 81.9844H304.959L298.057 109H296.22L297.76 101.671ZM290.06 81.9844L295.849 101.856L297.63 109H295.867L289.744 87.8848L288.241 81.9844H290.06ZM319.428 83.5986L310.076 109H307.701L317.906 81.9844H319.558L319.428 83.5986ZM327.926 109L318.556 83.5986L318.426 81.9844H320.077L330.301 109H327.926ZM326.256 99.4629V101.43H311.913V99.4629H326.256ZM351.932 107.052V109H337.923V107.052H351.932ZM338.591 81.9844V109H336.309V81.9844H338.591ZM360.63 81.9844V109H358.348V81.9844H360.63ZM377.329 81.9844L365.677 94.3604L359.813 100.131L359.591 97.5889L364.304 92.6904L374.472 81.9844H377.329ZM375.437 109L364.062 95.1211L365.436 93.2842L378.201 109H375.437Z" fill="white"/>
<path d="M230.49 30.9854C230.055 23.2722 220.374 19.7662 219.447 19.4061C219.409 19.3872 219.409 19.3493 219.428 19.3114L229.413 9.26719V8.18696C229.413 8.0164 229.261 7.86479 229.091 7.86479H210.692V1.81932V0L203.904 1.42135V2.44472H204.282C204.282 2.44472 205.946 2.44472 205.946 4.11243V7.84584H200.689C200.595 7.84584 200.5 7.94059 200.5 8.03535V10.4043H205.965V23.2722C205.965 27.3088 208.555 30.1136 213.094 29.7346C214.058 29.6588 214.947 29.2798 215.703 28.787C216.044 28.5596 216.252 28.1995 216.252 27.7826V26.5129C214.777 27.4983 213.529 27.4415 213.529 27.4415C210.654 27.4415 210.711 23.7839 210.711 23.7839V10.4043H223.948L214.417 20.0315C214.398 21.3013 214.38 22.2867 214.38 22.3057C214.38 22.3436 214.398 22.3625 214.436 22.3625C223.172 23.8407 225.536 29.5072 225.536 31.1559C225.536 31.1559 226.482 39.1723 218.483 39.7219C218.483 39.7219 213.245 39.9493 212.318 37.8457C212.281 37.7699 212.318 37.6941 212.394 37.6562C213.264 37.2583 213.85 36.4813 213.85 35.4389C213.85 33.8849 212.905 32.6152 210.919 32.6152C209.312 32.6152 207.988 33.8849 207.988 35.4389C207.988 35.4389 207.232 42.1856 218.464 41.9961C231.285 41.7687 230.49 30.9854 230.49 30.9854Z" fill="white"/>
</svg>
