<svg width="285" height="152" viewBox="0 0 285 152" fill="none" xmlns="http://www.w3.org/2000/svg">
<path d="M0.89917 15.1311H3.69099C3.69099 17.8854 5.96755 19.3563 9.59317 19.3563C12.7972 19.3563 14.9613 18.2789 14.9613 16.3864C14.9613 14.2879 12.1133 13.4447 8.99358 12.4891C5.45228 11.4399 1.52686 10.2688 1.52686 6.22158C1.52686 2.96133 4.16879 0.562988 8.99358 0.562988C13.8184 0.562988 17.2941 3.11123 17.2941 6.43706H14.5398C14.5398 4.6102 11.7854 3.58903 8.96548 3.58903C5.81765 3.58903 4.31869 4.84441 4.31869 6.19348C4.31869 7.89855 6.89503 8.74172 9.86486 9.66921C13.5186 10.8122 17.7157 12.1238 17.7157 16.3209C17.7157 19.6186 15.0176 22.3729 9.86486 22.3729C5.63965 22.3729 0.89917 20.5742 0.89917 15.1217V15.1311Z" fill="#FEF4DC"/>
<path d="M23.6834 6.3811V14.3818C23.6834 17.8013 25.8757 19.6563 29.5294 19.6563C33.4267 19.6563 35.647 17.5578 35.7314 14.4662V6.3811H38.4857V22.0921H35.7314V19.3659H34.9819C33.5766 21.4644 31.3563 22.6917 28.7143 22.6917C24.0113 22.6917 20.8916 19.0005 20.8916 14.3256V6.3811H23.6834Z" fill="#FEF4DC"/>
<path d="M42.8145 0.562988H45.6063V8.75109H46.3277C47.9484 6.44643 50.4967 5.48147 52.9231 5.48147C57.9259 5.48147 61.4953 9.4631 61.4953 13.8476C61.4953 18.232 57.6917 22.0919 52.9793 22.0919C50.759 22.0919 48.0046 21.2487 46.3277 18.9441H45.6063V21.7921H42.8145V0.562988ZM45.5969 14.5034C45.8405 17.1078 48.7166 19.0565 52.3141 19.0565C56.0897 19.0565 58.7035 16.9298 58.7035 13.782C58.7035 10.6342 56.099 8.50751 52.1361 8.50751C48.1733 8.50751 45.6625 10.6061 45.5969 13.6977V14.5034Z" fill="#FEF4DC"/>
<path d="M64.1836 2.56786C64.1836 1.39679 64.9893 0.562988 66.1604 0.562988C67.3314 0.562988 68.2027 1.40616 68.2027 2.56786C68.2027 3.79513 67.3314 4.6102 66.1604 4.6102C64.9893 4.6102 64.1836 3.8045 64.1836 2.56786ZM64.7832 6.38085H67.575V22.0919H64.7832V6.38085Z" fill="#FEF4DC"/>
<path d="M70.845 13.8385C70.845 9.46341 74.3863 5.47241 79.4172 5.47241C81.8436 5.47241 84.3919 6.428 85.9845 8.74203H86.7059V6.072H89.5258V21.783H86.7059V18.935H85.9845C84.3357 21.2397 81.5813 22.0828 79.361 22.0828C74.6205 22.0828 70.845 18.3635 70.845 13.8385ZM73.5993 13.7823C73.5993 16.9301 76.2412 19.0568 79.9887 19.0568C83.7361 19.0568 86.4623 17.1081 86.7059 14.5037V13.698C86.6497 10.6064 84.1014 8.50782 80.1667 8.50782C76.2319 8.50782 73.5993 10.6345 73.5993 13.7823Z" fill="#FEF4DC"/>
<path d="M92.9639 13.782C92.9639 8.80728 96.7113 5.48145 101.864 5.48145C105.162 5.48145 107.954 6.85862 109.602 9.22886L109.902 9.67855L107.41 11.0557C106.511 9.46307 104.412 8.50748 101.892 8.50748C98.3508 8.50748 95.7182 10.6341 95.7182 13.782C95.7182 16.9298 98.3601 19.0565 101.864 19.0565C104.206 19.0565 106.239 18.1009 107.288 16.5363H107.26C107.316 16.4801 107.354 16.4801 107.354 16.4801L107.504 16.2365C107.504 16.2365 107.532 16.2084 107.532 16.5925L109.93 17.8198C108.338 20.4898 105.377 22.0731 101.864 22.0731C96.7113 22.0731 92.9639 18.7473 92.9639 13.7726V13.782Z" fill="#FEF4DC"/>
<path d="M112 14.082C112 9.10732 115.748 5.78149 121.322 5.78149C126.896 5.78149 130.672 9.10732 130.672 14.082C130.672 19.0567 126.896 22.3825 121.322 22.3825C115.748 22.3825 112 19.0567 112 14.082ZM114.764 14.082C114.764 17.2298 117.406 19.3565 121.332 19.3565C125.257 19.3565 127.899 17.2298 127.899 14.082C127.899 10.9342 125.294 8.80753 121.332 8.80753C117.369 8.80753 114.764 10.9342 114.764 14.082Z" fill="#FEF4DC"/>
<path d="M267.696 57.0084V73.4782C267.696 76.1857 268.108 78.4436 268.924 80.2423C269.739 82.0411 270.91 83.4651 272.427 84.5144C273.945 85.5636 275.772 86.3038 277.889 86.7253C280.016 87.1469 282.386 87.353 285 87.353V80.2704C282.339 80.2704 280.269 80.0643 278.798 79.6427C277.327 79.2212 276.25 78.6871 275.575 78.0313C274.901 77.3755 274.488 76.6542 274.348 75.8578C274.207 75.0615 274.142 74.312 274.142 73.6188V57.0084H284.091V49.9257H274.142V41.3067H267.696V49.9257H261.878V57.0084H267.696ZM215.532 33.9055V83.5213H222.053V64.5969C222.146 60.9993 223.439 58.0764 225.941 55.8373C228.442 53.5982 231.955 52.474 236.49 52.474C240.79 52.474 244.153 53.5233 246.58 55.6312C249.006 57.7297 250.224 60.7932 250.224 64.8123V83.5213H256.669V64.9529C256.669 62.1985 256.239 59.6409 255.377 57.28C254.515 54.9192 253.278 52.8581 251.667 51.0781C250.055 49.298 248.125 47.9115 245.886 46.9091C243.647 45.9066 241.146 45.4007 238.391 45.4007C235.309 45.4007 232.517 46.0753 230.016 47.4337C227.515 48.7921 225.425 50.7033 223.748 53.1766H222.072V33.9055H215.551H215.532ZM176.981 76.2701C175.088 75.6892 173.477 74.846 172.147 73.7499C170.816 72.6538 169.776 71.3422 169.027 69.8245C168.277 68.3068 167.903 66.6392 167.903 64.8123C167.903 62.9855 168.249 61.4022 168.952 59.9032C169.655 58.4043 170.657 57.1114 171.969 56.0153C173.28 54.9192 174.854 54.0573 176.7 53.4202C178.545 52.7925 180.588 52.474 182.827 52.474C184.644 52.474 186.48 52.7269 188.326 53.2422C190.172 53.7575 191.849 54.4788 193.366 55.4157C194.884 56.3526 196.121 57.4768 197.076 58.779C198.032 60.0906 198.51 61.5334 198.51 63.126C198.51 65.1309 198.219 66.9952 197.629 68.7003C197.048 70.4054 196.149 71.8856 194.931 73.1503C193.713 74.4151 192.139 75.3894 190.2 76.0921C188.26 76.7947 185.937 77.1413 183.23 77.1413C180.944 77.1413 178.854 76.8509 176.962 76.2701M205.124 46.7966H198.538V52.755H196.851C195.118 50.3754 192.86 48.5486 190.05 47.2932C187.249 46.0284 184.344 45.4007 181.356 45.4007C178.367 45.4007 175.791 45.9347 173.364 47.0121C170.938 48.0895 168.83 49.5135 167.059 51.2842C165.279 53.0642 163.902 55.1159 162.928 57.4487C161.944 59.7814 161.457 62.1892 161.457 64.6718C161.457 67.1545 161.944 69.6746 162.928 72.1011C163.912 74.5275 165.279 76.6916 167.031 78.5841C168.783 80.4765 170.901 82.0036 173.374 83.1747C175.847 84.3457 178.564 84.9266 181.506 84.9266C184.635 84.9266 187.558 84.1677 190.265 82.65C192.973 81.1323 195.174 79.1087 196.851 76.5886H198.538C198.538 79.3429 198.36 81.7881 198.013 83.9148C197.666 86.0414 196.936 87.8121 195.84 89.2361C194.743 90.6601 193.188 91.7469 191.174 92.4964C189.16 93.2458 186.48 93.6206 183.117 93.6206C181.478 93.6206 179.866 93.5175 178.283 93.3021C176.69 93.096 175.276 92.7306 174.039 92.2153C172.802 91.7 171.8 90.988 171.022 90.0793C170.245 89.1705 169.87 88.0088 169.87 86.6129V86.4724H163.284C163.284 89.0394 163.94 91.2222 165.251 93.021C166.563 94.8198 168.221 96.2906 170.226 97.4336C172.231 98.5765 174.442 99.4103 176.85 99.9256C179.257 100.441 181.553 100.694 183.754 100.694C186.836 100.694 189.684 100.235 192.308 99.326C194.921 98.4173 197.179 97.1432 199.072 95.5037C200.964 93.8642 202.444 91.9249 203.522 89.6858C204.599 87.4467 205.133 84.9641 205.133 82.2566V46.7966H205.124ZM146.786 80.3828H153.306V43.6582H146.786V80.3828ZM136.265 30.7671H129.745V80.3828H136.265V30.7671ZM112.731 86.6504H119.252V49.9257H112.731V86.6504ZM119.355 44.5014C120.264 43.6395 120.723 42.4778 120.723 41.035C120.723 39.6859 120.264 38.5617 119.355 37.6717C118.446 36.7817 117.313 36.3414 115.954 36.3414C114.596 36.3414 113.49 36.7817 112.628 37.6717C111.766 38.5617 111.335 39.6859 111.335 41.035C111.335 42.4871 111.766 43.6395 112.628 44.5014C113.49 45.3633 114.605 45.7942 115.954 45.7942C117.303 45.7942 118.446 45.3633 119.355 44.5014ZM55.9393 83.5213H63.9306L71.9876 59.9032H73.8051L81.7215 83.5213H89.7784L106.314 46.7966H99.1657L86.6212 74.7617H84.8037L76.4657 46.7966H69.177L60.839 74.7617H59.0215L46.4771 46.7966H39.3944L55.9299 83.5213H55.9393ZM-0.000244141 40.9788H19.6924V83.5213H26.2129V40.9788H45.8306V33.8962H-0.000244141V40.9788Z" fill="#F4A3C5"/>
<path d="M235.15 101.303H228.629V150.919H235.15V101.303ZM210.211 147.78H216.731V111.056H210.211V147.78ZM162.291 127.544C163.04 126.027 164.08 124.715 165.411 123.619C166.741 122.523 168.352 121.68 170.245 121.099C172.137 120.518 174.226 120.218 176.522 120.218C178.817 120.218 180.887 120.508 182.761 121.099C184.625 121.68 186.227 122.513 187.558 123.581C188.888 124.659 189.919 125.933 190.64 127.404C191.361 128.875 191.755 130.523 191.802 132.341V134.233C191.661 135.779 191.155 137.194 190.293 138.477C189.432 139.761 188.298 140.885 186.893 141.841C185.487 142.796 183.867 143.546 182.021 144.08C180.175 144.614 178.199 144.885 176.1 144.885C174.002 144.885 171.894 144.595 170.076 144.005C168.249 143.424 166.675 142.581 165.345 141.485C164.015 140.389 162.984 139.077 162.263 137.559C161.541 136.042 161.176 134.374 161.176 132.547C161.176 130.72 161.551 129.053 162.3 127.535M166.675 114.747C164.221 115.824 162.104 117.258 160.333 119.056C158.553 120.855 157.176 122.935 156.201 125.296C155.218 127.657 154.73 130.121 154.73 132.688C154.73 135.255 155.246 137.85 156.276 140.182C157.307 142.515 158.721 144.558 160.52 146.309C162.319 148.061 164.436 149.439 166.863 150.441C169.289 151.443 171.884 151.949 174.639 151.949C175.941 151.949 177.299 151.818 178.705 151.565C180.11 151.312 181.496 150.891 182.874 150.3C184.251 149.72 185.562 148.961 186.799 148.024C188.036 147.087 189.15 145.944 190.125 144.586H191.811V151.247H198.397V114.522H191.811V120.761H190.125C188.251 118.054 185.946 116.105 183.192 114.906C180.438 113.716 177.637 113.117 174.779 113.117C171.922 113.117 169.139 113.651 166.685 114.728M130.354 151.968V134.449C130.4 132.631 130.747 130.945 131.403 129.399C132.059 127.853 133.005 126.504 134.241 125.333C135.478 124.162 136.996 123.253 138.795 122.598C140.593 121.942 142.636 121.614 144.931 121.614C147.03 121.614 148.529 121.754 149.419 122.036L152.079 114.953C150.44 114.203 148.547 113.829 146.402 113.829C143.413 113.829 140.678 114.494 138.204 115.824C135.731 117.155 133.67 119.056 132.04 121.539H130.354V115.234H123.833V151.959H130.354V151.968ZM79.6604 109.425H99.3531V151.968H105.874V109.425H125.501V102.343H79.6698V109.425H79.6604Z" fill="#F4A3C5"/>
<path d="M150.58 13.6697C150.58 21.4737 154.478 25.371 162.282 25.371C154.478 25.371 150.58 29.2683 150.58 37.0723C150.58 29.2683 146.683 25.371 138.879 25.371C146.683 25.371 150.58 21.4737 150.58 13.6697Z" fill="#EF9CB6"/>
<path d="M213.743 86.1541C213.743 93.958 217.641 97.8554 225.445 97.8554C217.641 97.8554 213.743 101.753 213.743 109.557C213.743 101.753 209.846 97.8554 202.042 97.8554C209.846 97.8554 213.743 93.958 213.743 86.1541Z" fill="#EF9CB6"/>
</svg>
