<svg width="34" height="56" viewBox="0 0 34 56" fill="none" xmlns="http://www.w3.org/2000/svg">
<path d="M21.5946 39.5519V36.6448C21.5946 35.6758 21.6712 34.847 21.8243 34.1585C21.9775 33.47 22.22 32.8579 22.5518 32.3224C22.8836 31.7869 23.3048 31.2641 23.8153 30.7541C24.3258 30.2441 24.9384 29.6576 25.6532 28.9945C26.7763 27.9235 27.8356 26.9035 28.8311 25.9344C29.8266 24.9654 30.7072 23.9454 31.473 22.8743C32.2387 21.8033 32.8514 20.6302 33.3108 19.3552C33.7703 18.0802 34 16.6011 34 14.918C34 12.521 33.5916 10.3916 32.7748 8.53006C31.958 6.66849 30.8221 5.11293 29.3671 3.86339C27.9122 2.61384 26.202 1.65756 24.2365 0.994536C22.271 0.331512 20.1396 0 17.8423 0C15.3919 0 13.1456 0.344262 11.1036 1.03279C9.06156 1.72131 7.26201 2.7286 5.70496 4.05465C4.1479 5.38069 2.88438 7 1.91441 8.91257C0.944444 10.8251 0.306306 13.0055 0 15.4536L9.8018 16.2186C10.006 14.1275 10.7973 12.3552 12.1757 10.9016C13.5541 9.44809 15.3153 8.72131 17.4595 8.72131C19.4505 8.72131 21.0968 9.34609 22.3986 10.5956C23.7005 11.8452 24.3514 13.4645 24.3514 15.4536C24.3514 17.4936 23.7132 19.1512 22.4369 20.4262L16.5405 26.3934C15.7748 27.2095 15.1239 27.9108 14.5878 28.4973C14.0518 29.0838 13.6179 29.6958 13.286 30.3333C12.9542 30.9709 12.7245 31.6849 12.5968 32.4754C12.4692 33.2659 12.4054 34.2222 12.4054 35.3443V39.5519H21.5946Z" fill="#FEF0D5"/>
<path d="M17 55.9999C18.6847 55.9999 20.1268 55.4134 21.3265 54.2403C22.5262 53.0673 23.1261 51.6647 23.1261 50.0327C23.1261 48.4006 22.5135 47.0236 21.2883 45.9015C20.063 44.7795 18.6336 44.2185 17 44.2185C15.3153 44.2185 13.8731 44.805 12.6734 45.978C11.4737 47.1511 10.8738 48.5536 10.8738 50.1857C10.8738 51.0017 11.0398 51.7667 11.3716 52.4808C11.7034 53.1948 12.1501 53.8068 12.7117 54.3168C13.2732 54.8268 13.9241 55.2348 14.6644 55.5409C15.4046 55.8469 16.1832 55.9999 17 55.9999Z" fill="#FEF0D5"/>
</svg>
