<svg width="637" height="146" viewBox="0 0 637 146" fill="none" xmlns="http://www.w3.org/2000/svg">
<path d="M0 59.3298H142.042L95.8354 144.899L71.0178 98.9517L46.2001 144.899L0 59.3298ZM61.7817 76.4397H30.6317L46.2067 105.277L61.7817 76.4397ZM111.41 76.4397H80.2604L95.8354 105.277L111.41 76.4397Z" fill="white"/>
<path d="M234.462 144.899H142.049L188.256 59.3298L234.462 144.899ZM172.681 127.783H203.831L188.256 98.9451L172.681 127.783Z" fill="white"/>
<path d="M251.579 59.3298L302.922 102.115V59.3298H320.039V144.899L268.696 102.115V144.899H251.579V59.3298Z" fill="white"/>
<path d="M389.176 145.75H367.786L341.52 96.9783H362.145L341.427 58.4727H400.471C424.605 58.4727 444.113 77.9813 444.113 102.115C444.113 126.248 424.605 145.756 400.471 145.756V127.789C414.678 127.789 426.14 116.234 426.14 102.121C426.14 88.008 414.671 76.453 400.471 76.453H372.491L392.77 114.101H372.145L389.176 145.763V145.75Z" fill="white"/>
<path d="M482.021 97.8354L461.23 59.3298H529.683V76.4397H491.862L512.566 114.945H478.34V127.783H519.41L529.676 144.899H461.223V97.8354H482.014H482.021Z" fill="white"/>
<path d="M567.597 144.899H550.481V97.8354H571.272L550.481 59.3298H636.05V72.1673C636.05 92.9583 621.16 110.334 601.478 114.181L618.076 144.899H596.687L580.514 114.952H567.591V144.899H567.597ZM618.595 76.4464H581.119L592.667 97.8421H593.265C606.016 97.8421 616.542 88.5994 618.595 76.4464Z" fill="white"/>
<path d="M194.409 0.657715H200.216L218.456 24.7046V0.657715H226.343V39.0039H220.535L202.296 14.8971V39.0039H194.409V0.657715Z" fill="white"/>
<path d="M100.334 0.657715H113.643C122.301 0.657715 127.118 5.36876 127.118 11.6147C127.118 14.6845 125.53 18.1331 122.241 19.6148C126.188 20.8175 128.873 24.2727 128.873 28.3259C128.873 35.2829 124.487 39.0105 114.354 39.0105H100.334V0.657715ZM113.371 7.22925H108.221V16.9238H113.371C117.643 16.9238 119.231 15.1164 119.231 12.0466C119.231 8.97679 117.643 7.22261 113.371 7.22261V7.22925ZM108.221 23.5019V32.4323H115.012C119.178 32.4323 120.706 30.7911 120.706 27.9937C120.706 25.1963 119.171 23.5019 115.012 23.5019H108.221Z" fill="white"/>
<path d="M168.701 33.3094H152.156L149.963 39.0039H141.744L157.252 0.657715H163.604L179.106 39.0039H170.887L168.694 33.3094H168.701ZM154.674 26.7379H166.176L160.422 11.8406L154.667 26.7379H154.674Z" fill="white"/>
<path d="M277.28 0.657715L263.2 20.4919L279.579 39.0105H269.719L255.094 22.1398V39.0105H247.207V0.657715H255.094V19.5019L268.077 0.657715H277.28Z" fill="white"/>
<path d="M293.28 10.4055C293.28 4.21269 297.666 0 305.606 0C309.274 0 313.055 0.983405 315.905 2.68443L313.493 8.93038C311.52 7.61474 308.889 6.79081 306.37 6.79081C302.922 6.79081 301.274 8.05329 301.274 10.0267C301.274 12.1597 302.696 13.4487 307.905 15.8341C314.616 18.904 317.819 22.2994 317.819 28.0536C317.819 35.1235 312.995 39.6684 303.958 39.6684C299.958 39.6684 295.686 38.5189 292.457 36.5454L294.869 30.1932C297.334 31.8942 300.676 32.8776 303.633 32.8776C307.467 32.8776 309.826 31.3427 309.826 28.6849C309.826 25.8609 307.826 24.2728 303.115 22.2196C295.5 18.904 293.28 15.369 293.28 10.4121V10.4055Z" fill="white"/>
<path d="M342.584 7.34221H332.338V0.657715H360.717V7.34221H350.471V39.0039H342.584V7.34221Z" fill="white"/>
<path d="M396.053 0C407.555 0 416.598 8.2194 416.598 19.8342C416.598 31.449 407.561 39.6684 396.053 39.6684C384.544 39.6684 375.508 31.449 375.508 19.8342C375.508 8.2194 384.544 0 396.053 0ZM396.053 32.871C403.01 32.871 408.598 27.5553 408.598 19.8342C408.598 12.1132 403.01 6.79745 396.053 6.79745C389.096 6.79745 383.508 12.1132 383.508 19.8342C383.508 27.5553 389.096 32.871 396.053 32.871Z" fill="white"/>
<path d="M470.447 26.1864L478.168 0.657715H486.387L473.623 39.0039H467.27L458.612 13.0367L449.954 39.0039H443.602L430.838 0.657715H439.057L446.778 26.1864L455.436 0.657715H461.789L470.447 26.1864Z" fill="white"/>
<path d="M503.37 0.657715H509.178L527.417 24.7046V0.657715H535.304V39.0039H529.497L511.257 14.8971V39.0039H503.37V0.657715Z" fill="white"/>
</svg>
