<svg width="140" height="140" viewBox="0 0 140 140" fill="none" xmlns="http://www.w3.org/2000/svg">
<path d="M139.98 71.6385C139.074 110.286 107.01 140.885 68.36 139.979C29.7094 139.076 -0.886553 107.009 0.0196202 68.3614C0.922823 29.7109 32.9895 -0.885089 71.64 0.021085C110.288 0.927259 140.887 32.9909 139.98 71.6415V71.6385Z" fill="#91CA6B"/>
<path d="M48.439 44.1414H47.7438L44.9331 64.0564V64.0653L44.9302 64.0801L44.3983 68.8636L43.7596 64.0623L43.7566 64.0534V64.0445L40.6994 44.1414H36.8073L33.7976 64.095V64.1069L33.7946 64.1217L33.2717 68.614L32.7666 64.1247V64.1128L32.7637 64.1039L29.956 44.1414H25.7728L30.8444 79.6842H35.5238L38.8514 57.0625L42.28 79.6842H46.8584L51.826 44.1414H48.439Z" fill="white"/>
<path d="M64.456 79.6842H68.5233V44.189H65.2552H64.456V64.1278H57.9196V44.189H53.7512V79.6842H57.9196V68.3288H64.456V79.6842Z" fill="white"/>
<path d="M76.4769 44.189H73.1077H72.3085V79.6842H76.4769V44.189Z" fill="white"/>
<path d="M88.2393 62.7728C87.963 62.6213 87.6837 62.4639 87.4015 62.3064C85.5208 61.2487 83.8243 60.1524 83.6936 58.3727V51.7175C83.6936 49.9616 84.1838 47.867 86.525 47.867C88.8662 47.867 89.2613 49.9349 89.2613 51.67V56.8248H93.3287V51.6195C93.3287 47.0292 90.5953 43.9423 86.528 43.9423C82.211 43.9423 79.5311 46.9193 79.5311 51.7116V58.5539C79.8371 62.6273 83.138 64.4604 85.7882 65.9341C85.9545 66.0262 86.118 66.1183 86.2814 66.2074C86.4983 66.3292 86.7092 66.4451 86.9201 66.5609C89.0652 67.7464 90.1824 68.4357 90.1824 69.9182V72.1941C90.1824 74.1253 89.3386 76.1902 86.9647 76.1902C85.9843 76.1902 85.1821 75.8752 84.5849 75.2572C83.8778 74.5234 83.5034 73.3855 83.551 72.1317V72.1168V68.0049H79.436V72.102C79.4093 74.4253 80.1788 76.5021 81.6049 77.9431C82.9568 79.3127 84.8612 80.0644 86.9677 80.0644C89.2703 80.0644 91.1777 79.2325 92.479 77.6579C93.6229 76.2733 94.2557 74.3332 94.2557 72.1971V69.7281C94.2557 66.1034 91.3351 64.4842 88.2452 62.7669L88.2393 62.7728Z" fill="white"/>
<path d="M101.425 70.9493L101.68 70.465L108.763 79.3842L109.004 79.6842H114.221L113.217 78.3948C110.499 74.9038 108.615 72.4972 107.254 70.7532C105.424 68.412 104.542 67.283 103.823 66.3353L113.52 44.189H109.013L102.171 59.9712V59.9802L102.162 59.9891L101.425 61.8074V44.189H97.2595V79.6842H101.425V70.9493Z" fill="white"/>
<path d="M93.1059 90.0888C92.8623 90.2998 92.5859 90.5196 92.2859 90.7454C91.8372 91.0782 91.353 91.3901 90.8479 91.6724C90.3369 91.9576 89.8021 92.2012 89.2643 92.3914C88.6998 92.5905 88.1531 92.6915 87.6362 92.6915C87.5381 92.6915 87.446 92.6855 87.3539 92.6766C85.6039 92.4805 85.4762 90.9177 85.4762 90.9177L86.0407 90.7662C86.6795 90.5939 87.2796 90.3503 87.8263 90.0443C88.37 89.7382 88.8424 89.3876 89.2316 88.9984C89.6179 88.6122 89.9655 88.1428 90.2566 87.5991C90.5359 87.0821 90.6756 86.6216 90.6756 86.2264C90.6756 85.8491 90.6102 85.5045 90.4795 85.2074C90.3517 84.9103 90.1675 84.6547 89.9417 84.4438C89.71 84.2329 89.4307 84.0635 89.1128 83.9447C88.7919 83.8258 88.4354 83.7634 88.0581 83.7634C87.5857 83.7634 87.1578 83.8466 86.7775 84.01C86.3883 84.1794 86.0318 84.4081 85.7169 84.6904C85.396 84.9816 85.1137 85.3203 84.8731 85.7035C84.6265 86.0957 84.4185 86.5117 84.2581 86.9425C84.0917 87.3881 83.9253 87.9081 83.7678 88.4874C83.6163 89.04 83.5391 89.5184 83.5391 89.9076C83.5391 90.5166 83.6252 91.1079 83.7916 91.6605C83.958 92.2012 84.2046 92.6826 84.5314 93.0896C84.8523 93.4907 85.2593 93.8145 85.7406 94.0522C86.219 94.2899 86.7924 94.4087 87.446 94.4087C87.8768 94.4087 88.3076 94.3582 88.7265 94.2572C89.1544 94.1562 89.5733 94.0166 89.9744 93.8472C90.3784 93.6749 90.7677 93.4758 91.1331 93.256C91.5045 93.0331 91.858 92.8014 92.1819 92.5667C92.8117 92.1062 93.4238 91.5803 93.9972 91.0009L93.1029 90.0948L93.1059 90.0888ZM88.0432 85.1093C88.1294 85.1004 88.2215 85.0974 88.3165 85.0974C88.5631 85.0974 88.9137 85.1925 89.1811 85.653C89.3505 85.9442 89.4366 86.3037 89.4366 86.7256C89.4366 87.0702 89.2732 87.4594 88.9404 87.917C88.7562 88.1695 88.5631 88.3953 88.37 88.5855C88.37 88.5855 88.37 88.5855 88.37 88.5884C88.3344 88.6241 88.2987 88.6568 88.263 88.6895C87.1638 89.6848 85.4405 89.7471 85.4405 89.7471C85.4405 89.7471 85.6277 85.5164 88.0462 85.1093H88.0432Z" fill="white"/>
<path d="M38.474 89.866C38.2661 90.1007 38.0403 90.3443 37.7966 90.5939C37.3718 91.0277 36.9172 91.4288 36.4478 91.7913C35.9724 92.1567 35.4911 92.4657 35.0187 92.7063C34.5047 92.9678 34.0204 93.1015 33.5748 93.1015C33.1024 93.1015 32.7013 92.9916 32.3863 92.7687C32.0952 92.5667 31.8515 92.3052 31.6703 91.9992C31.492 91.6991 31.3702 91.3664 31.3108 91.0069C31.2573 90.6801 31.2276 90.3592 31.2276 90.0561C31.2276 89.863 31.2365 89.6194 31.2514 89.3372C31.2692 89.0371 31.3138 88.7192 31.3821 88.3953C31.4504 88.0774 31.5663 87.6793 31.7268 87.2158C31.8961 86.7286 32.0655 86.3572 32.2467 86.0779C32.4368 85.7838 32.6745 85.5401 32.9479 85.353C33.2479 85.1509 33.6074 85.0469 34.0145 85.0469C34.3413 85.0469 34.6057 85.2401 34.7008 85.552C34.7513 85.7184 34.778 85.9145 34.778 86.1462C34.7869 86.4315 34.778 86.5622 34.7632 86.6424C34.7632 86.6424 34.7364 86.8444 34.5879 87.3495C34.5701 87.4238 34.5641 87.501 34.5582 87.5694C34.5582 87.5991 34.5582 87.7773 34.6948 87.9378C34.7038 87.9467 34.7097 87.9556 34.7186 87.9645C34.7869 88.0239 34.882 88.0744 35.0068 88.0834C35.0187 88.0834 35.0335 88.0834 35.0454 88.0834C35.2237 88.0834 35.3782 88.0447 35.5149 87.9615C35.6129 87.9021 35.7793 87.7565 36.0051 87.4C36.2012 87.091 36.3319 86.8236 36.3973 86.6067C36.4597 86.3928 36.4923 86.173 36.4923 85.9531C36.4923 85.6382 36.427 85.353 36.2962 85.0826C36.1625 84.8063 35.9783 84.5745 35.7407 84.3725C35.5 84.1705 35.2029 84.0071 34.8553 83.8912C34.5017 83.7723 34.1095 83.71 33.6906 83.71C33.2301 83.71 32.8052 83.7931 32.4249 83.9595C32.0357 84.1289 31.6762 84.3636 31.3583 84.6518C31.0345 84.9459 30.7463 85.2935 30.4997 85.6857C30.2472 86.0898 30.0303 86.5176 29.858 86.9573C29.6827 87.4089 29.5163 87.9467 29.3648 88.5528C29.2192 89.144 29.1449 89.6551 29.1449 90.068C29.1449 90.6474 29.234 91.2149 29.4064 91.7526C29.5757 92.2785 29.8282 92.745 30.158 93.1431C30.4819 93.5353 30.8919 93.8532 31.3762 94.0879C31.8545 94.3196 32.4279 94.4385 33.0756 94.4385C33.4381 94.4385 33.8006 94.379 34.1571 94.2661C34.5285 94.1473 34.888 93.9898 35.2296 93.7997C35.5772 93.6066 35.9159 93.3808 36.2338 93.1312C36.5607 92.8757 36.8637 92.6113 37.1371 92.3468C37.7283 91.7764 38.2869 91.1287 38.8038 90.4186L38.477 89.866H38.474Z" fill="white"/>
<path d="M38.4741 89.866L38.991 89.2421V90.1156L38.6939 90.5612" fill="white"/>
<path d="M38.7919 90.4305L38.9761 90.2166C38.9761 90.2166 38.9464 90.071 38.9345 90.0591C38.9227 90.0473 38.887 90.0086 38.8662 90.0027" fill="white"/>
<path d="M49.0213 88.5319C48.6945 88.7369 48.3261 88.9271 47.931 89.0905C47.5031 89.2688 47.0812 89.3579 46.6712 89.3609C46.487 89.3609 46.3088 89.3252 46.1424 89.2569C45.9582 89.1796 45.7948 89.0548 45.6581 88.8796C45.5333 88.7221 45.4353 88.5201 45.364 88.2764C45.2956 88.0447 45.2629 87.7743 45.2629 87.4475C45.2629 87.2573 45.2837 87.0345 45.3253 86.7642C45.3669 86.5086 45.4293 86.1937 45.5155 85.7956C45.5987 85.4212 45.6611 85.1182 45.6967 84.8924C45.7383 84.628 45.7502 84.4853 45.7472 84.4111C45.7472 84.3041 45.7294 84.212 45.6937 84.1377C45.6581 84.0575 45.6106 83.9951 45.5541 83.9416C45.4917 83.8852 45.4204 83.8436 45.3342 83.8139C45.2451 83.7812 45.153 83.7664 45.055 83.7664C44.7192 83.7664 44.434 83.8525 44.1844 84.0278C43.8963 84.2298 43.6348 84.4824 43.409 84.7795C43.1743 85.0855 42.9425 85.4836 42.7257 85.956C42.4939 86.4581 42.2978 86.8741 42.1374 87.195L42.0126 87.4445C41.1332 89.2717 41.1718 87.4445 41.1718 87.4445L41.154 87.0108C41.1361 86.5978 41.148 86.1135 41.1896 85.5698C41.2282 85.0499 41.2461 84.6488 41.2461 84.3784V84.3665C41.2461 84.3665 41.2461 84.3398 41.2461 84.3249C41.2461 84.313 41.2461 84.3012 41.2461 84.2893C41.252 83.8763 40.9876 83.7842 40.8301 83.7693C40.6875 83.7693 40.5687 83.7782 40.4795 83.7931C40.429 83.802 40.3904 83.8139 40.3666 83.8317C40.334 83.8555 40.3042 83.8911 40.2716 83.9416C40.2389 83.9922 40.1884 84.0902 40.126 84.2655V84.2774C40.0279 84.5151 39.9329 84.827 39.8378 85.2043C39.7397 85.5906 39.6209 86.0749 39.4783 86.6839C39.3416 87.2692 39.2287 87.8248 39.1396 88.3388C39.0505 88.8558 38.9732 89.3698 38.9078 89.8689C38.8425 90.3651 38.792 90.8434 38.7534 91.2921C38.7147 91.7347 38.6969 92.124 38.6969 92.4508C38.6969 92.7419 38.7147 93.0272 38.7474 93.3005C38.7771 93.5441 38.8336 93.764 38.9197 93.9482C38.991 94.1056 39.0891 94.2245 39.2168 94.3136C39.3327 94.3968 39.505 94.4354 39.7279 94.4354C39.8081 94.4354 39.8734 94.4236 39.9329 94.3968C39.9804 94.376 40.0339 94.3314 40.0874 94.2631C40.1676 94.1651 40.2478 94.0314 40.331 93.865C40.4201 93.6808 40.5182 93.4431 40.6192 93.1579L42.8148 87.0316C42.8148 87.0316 43.4684 84.6963 43.718 87.0316L43.7685 87.4267C43.8279 87.8991 43.9081 88.3774 44.0092 88.8439C44.1013 89.2777 44.2409 89.6728 44.431 90.0175C44.6063 90.3383 44.8381 90.5939 45.1382 90.7899C45.4174 90.9771 45.8096 91.0692 46.2998 91.0692C46.5821 91.0692 46.8614 91.0276 47.1317 90.9444C47.4229 90.8553 47.7052 90.7424 47.9755 90.6087C48.2489 90.475 48.5103 90.3265 48.7569 90.172C48.9352 90.0591 49.0986 89.9521 49.2501 89.8541L49.3482 88.324C49.2412 88.3953 49.1342 88.4666 49.0273 88.5319H49.0213Z" fill="white"/>
<path d="M57.881 90.1186C57.6374 90.3295 57.361 90.5494 57.061 90.7752C56.6123 91.1079 56.1281 91.4199 55.623 91.7021C55.112 91.9874 54.5772 92.231 54.0394 92.4182C53.4749 92.6172 52.9282 92.7182 52.4113 92.7182C52.3162 92.7182 52.2211 92.7123 52.129 92.7004C50.3791 92.5043 50.2513 90.9415 50.2513 90.9415L50.8158 90.79C51.4546 90.6177 52.0547 90.3741 52.6014 90.068C53.1451 89.762 53.6175 89.4114 54.0067 89.0222C54.393 88.636 54.7406 88.1666 55.0317 87.6199C55.311 87.1029 55.4507 86.6424 55.4507 86.2473C55.4507 85.8521 55.3853 85.5253 55.2546 85.2282C55.1238 84.9311 54.9426 84.6756 54.7138 84.4676C54.4821 84.2567 54.2028 84.0873 53.8849 83.9685C53.564 83.8496 53.2075 83.7872 52.8302 83.7872C52.3578 83.7872 51.927 83.8704 51.5497 84.0338C51.1604 84.2032 50.8039 84.432 50.489 84.7142C50.1681 85.0054 49.8859 85.3441 49.6452 85.7273C49.3986 86.1195 49.1906 86.5355 49.0302 86.9663C48.8608 87.4119 48.6974 87.9319 48.537 88.5112C48.3855 89.0638 48.3082 89.5422 48.3082 89.9314C48.3082 90.5405 48.3944 91.1317 48.5608 91.6843C48.7271 92.225 48.9737 92.7064 49.3006 93.1134C49.6214 93.5145 50.0285 93.8383 50.5098 94.079C50.9881 94.3167 51.5645 94.4355 52.2152 94.4355C52.646 94.4355 53.0768 94.385 53.4957 94.284C53.9235 94.183 54.3424 94.0433 54.7435 93.874C55.1476 93.7017 55.5368 93.5026 55.8993 93.2827C56.2707 93.0599 56.6242 92.8282 56.9481 92.5935C57.5809 92.1329 58.19 91.6071 58.7634 91.0277L57.8691 90.1215L57.881 90.1186ZM52.8153 85.1361C52.9015 85.1272 52.9936 85.1242 53.0857 85.1242C53.3323 85.1242 53.6829 85.2193 53.9503 85.6798C54.1196 85.971 54.2058 86.3305 54.2058 86.7523C54.2058 87.097 54.0424 87.4862 53.7096 87.9437C53.5224 88.1963 53.3323 88.4191 53.1392 88.6122C53.1035 88.6479 53.0679 88.6806 53.0352 88.7132C51.9359 89.7086 50.2127 89.7709 50.2127 89.7709C50.2127 89.7709 50.3999 85.5402 52.8183 85.1331L52.8153 85.1361Z" fill="white"/>
<path d="M68.5709 90.4543C68.3748 90.6949 68.1787 90.9207 67.9856 91.1317C67.8133 91.3188 67.6291 91.503 67.436 91.6754C67.2399 91.8536 67.0408 92.0141 66.8477 92.1537C66.6427 92.3023 66.4347 92.4241 66.2297 92.5162C65.992 92.6231 65.7543 92.6766 65.5285 92.6766C65.1126 92.6766 64.8006 92.4538 64.6729 92.0646C64.5897 91.818 64.5511 91.4971 64.5511 91.0871C64.5511 90.6355 64.6164 90.1007 64.7531 89.453L65.0948 87.8249C65.1958 87.3465 65.2849 86.883 65.3592 86.4463C65.4305 86.0185 65.4691 85.6263 65.4691 85.2846C65.4691 85.2103 65.4691 85.1479 65.4632 85.0915C65.5077 84.6042 65.3176 84.2923 65.0235 84.0903C64.0163 83.297 61.9989 83.8674 61.9989 83.8674C61.8147 83.9179 61.6305 83.9803 61.4493 84.0605C60.968 84.2715 60.5045 84.5597 60.0707 84.9192C59.631 85.2817 59.218 85.7154 58.8436 86.2056C58.4693 86.6988 58.1098 87.296 57.783 87.9794C57.4532 88.6657 57.2066 89.3074 57.0491 89.8898C56.8946 90.4602 56.8174 91.0247 56.8174 91.5654C56.8174 92.026 56.8887 92.4389 57.0313 92.7955C57.1739 93.152 57.3611 93.458 57.5928 93.6987C57.8216 93.9393 58.089 94.1265 58.3861 94.2542C58.9714 94.5068 59.5983 94.4979 60.2163 94.2958C60.5401 94.1889 60.8551 94.0522 61.1551 93.8858C61.4552 93.7195 61.7375 93.5293 61.99 93.3243C62.2425 93.1193 62.4565 92.9143 62.6288 92.7182L63.1131 92.1626L63.3894 92.846C63.6152 93.4075 63.8796 93.8324 64.1767 94.1146C64.4382 94.3612 64.759 94.483 65.1571 94.483C65.5137 94.483 65.8791 94.3909 66.2416 94.2097C66.6367 94.0136 67.0111 93.77 67.3587 93.4847C67.7123 93.1936 68.0331 92.8846 68.3184 92.5667C68.5442 92.3112 68.7343 92.0794 68.8888 91.8774L68.5768 90.4513L68.5709 90.4543ZM62.7209 89.4263C62.6852 89.6966 62.6169 90.0175 62.507 90.4097C62.3941 90.8078 62.2455 91.203 62.0643 91.5803C61.8741 91.9695 61.6454 92.3112 61.3809 92.5964C61.0601 92.941 60.6857 93.1163 60.2668 93.1163C59.9816 93.1163 59.7379 93.0361 59.5418 92.8816C59.3695 92.7479 59.2329 92.5726 59.1318 92.3587C59.0427 92.1686 58.9803 91.9547 58.9476 91.7229C58.9179 91.5149 58.9031 91.298 58.9031 91.0752C58.9031 90.7038 58.9506 90.3027 59.0486 89.8838C59.1437 89.4738 59.3071 88.9955 59.5329 88.4666C59.7587 87.9348 59.9964 87.4802 60.2341 87.1118C60.4748 86.7404 60.7451 86.4047 61.0333 86.1135C61.3334 85.8105 61.6602 85.5669 62.0019 85.3886C62.3703 85.1955 62.7565 85.1004 63.1457 85.1004H63.7132L62.7209 89.4292V89.4263Z" fill="white"/>
<path d="M65.4602 84.8063C65.4602 84.8063 65.576 85.2222 65.3918 86.2532C65.2076 87.2841 64.9818 86.2829 64.9224 86.2532C64.863 86.2235 64.6223 85.0143 64.6223 85.0143" fill="white"/>
<path d="M84.1155 90.8346C83.967 90.9891 83.8184 91.1406 83.6669 91.2803C83.4945 91.4437 83.3133 91.6071 83.1261 91.7556C82.9301 91.9161 82.728 92.0587 82.523 92.1775C82.315 92.2993 82.11 92.4003 81.911 92.4806C81.6792 92.5727 81.4505 92.6172 81.2306 92.6172C80.984 92.6172 80.6423 92.4984 80.4136 91.9339C80.2799 91.61 80.2175 91.2149 80.2175 90.7247C80.2175 90.1691 80.2442 89.6343 80.3007 89.1351C80.3541 88.642 80.4403 88.0893 80.5502 87.4951C80.6572 86.9217 80.7374 86.3899 80.7909 85.9115C80.8414 85.4421 80.8681 84.94 80.8681 84.4171C80.8681 84.1467 80.7612 84.0309 80.6661 83.9596C80.4938 83.8288 80.2799 83.7635 80.0125 83.7635C79.8015 83.7635 79.6381 83.8259 79.4955 83.9625C79.2905 84.1586 79.0825 84.4052 78.8716 84.6934C78.6428 85.0113 78.3932 85.3797 78.1348 85.7897C77.8555 86.2324 77.6089 86.6276 77.3771 86.999C77.1484 87.3703 76.9315 87.7506 76.7354 88.1309C76.5334 88.5201 76.4531 88.6687 76.4175 88.7341C74.7656 92.0082 75.443 88.2319 75.443 88.2319C75.4697 88.0656 75.4965 87.9348 75.5262 87.8368C75.6628 87.3674 75.7579 87.0019 75.8084 86.7523V86.7434C75.8797 86.4523 75.9421 86.1938 75.9986 85.9769C76.0402 85.8194 76.0847 85.5669 76.1293 85.2312C76.1649 84.9727 76.1828 84.6994 76.1828 84.4171C76.1828 84.1348 76.0758 84.013 75.9986 83.9477C75.847 83.8229 75.6658 83.7635 75.446 83.7635C75.2023 83.7635 75.0033 83.8318 74.8309 83.9744C74.6111 84.1616 74.3942 84.4022 74.1922 84.6875C73.9604 85.0054 73.7227 85.3708 73.4732 85.7778C73.2206 86.1908 72.9829 86.5949 72.7601 86.9752C72.5967 87.2604 72.4392 87.5486 72.2937 87.8398L71.2568 89.6521L71.1112 89.8898C70.4724 90.6534 70.8319 88.5409 70.8319 88.5409L70.8705 88.3211C70.9894 87.6556 71.1023 87.0495 71.2122 86.5176L71.2241 86.4582C71.233 86.3988 71.2538 86.2592 71.3013 85.9323C71.331 85.7363 71.3548 85.5461 71.3697 85.356V85.3411C71.3875 85.2074 71.3994 85.0826 71.4083 84.9638C71.4083 84.9162 71.4142 84.8657 71.4202 84.8122C71.4231 84.7707 71.4261 84.732 71.4291 84.6904C71.4291 84.0101 71.0666 83.8259 70.8378 83.7783H70.8349C70.7933 83.7664 70.7546 83.7635 70.7249 83.7605C70.7041 83.7605 70.6804 83.7605 70.6596 83.7605C70.4546 83.7605 70.3387 83.7783 70.2733 83.7902C70.2288 83.7991 70.1931 83.8169 70.1604 83.8467C70.1277 83.8764 70.0802 83.9358 70.0238 84.0546C69.9643 84.1854 69.896 84.3666 69.8247 84.5983C69.7475 84.839 69.6643 85.145 69.5751 85.5134C69.483 85.8937 69.3909 86.3126 69.3048 86.7642L68.9898 88.3953C68.871 88.9985 68.7819 89.5481 68.7195 90.0294C68.6571 90.5107 68.6095 90.9683 68.5709 91.3991C68.5323 91.821 68.5145 92.1924 68.5145 92.4984C68.5145 92.7806 68.5293 93.0569 68.565 93.3214C68.5947 93.5561 68.6511 93.7641 68.7343 93.9423C68.8056 94.0909 68.9007 94.2067 69.0285 94.2929C69.1443 94.3731 69.3196 94.4117 69.5454 94.4117C69.7207 94.4117 69.8752 94.3761 70.0149 94.2989C70.1337 94.2365 70.2555 94.0879 70.3654 93.8651C70.8973 92.8252 71.334 91.9369 71.6727 91.2149C72.0055 90.5018 72.2877 89.9046 72.5105 89.4441C72.7274 88.9925 72.8997 88.6419 73.0245 88.3983C73.0929 88.2646 73.1582 88.1488 73.2206 88.0477C73.2206 88.0477 74.8636 85.0915 74.4625 87.6229C74.418 87.8932 74.3764 88.1339 74.3377 88.3508C74.2308 88.9866 74.1357 89.5927 74.0585 90.1542C74.0198 90.4246 73.9812 90.692 73.9426 90.9594C73.901 91.2387 73.8683 91.4882 73.8386 91.72C73.8089 91.9547 73.7851 92.1627 73.7703 92.3439C73.7524 92.5608 73.7495 92.6796 73.7495 92.739C73.7495 92.9589 73.7614 93.1847 73.7881 93.4164C73.8119 93.6244 73.8564 93.8175 73.9248 93.9839C73.9812 94.1265 74.0555 94.2365 74.1506 94.3226C74.1743 94.3434 74.2427 94.4058 74.4447 94.4058C74.7062 94.4058 74.9349 94.3612 75.1221 94.2781C75.2796 94.2067 75.4341 94.0552 75.5796 93.8294L78.0456 87.5843C78.0456 87.5843 79.3618 84.6162 79.032 87.5843L78.9756 88.0864C78.9162 88.639 78.8656 89.1975 78.833 89.7442C78.8003 90.2879 78.7825 90.8079 78.7825 91.2892C78.7825 91.7824 78.8062 92.2429 78.8538 92.6558C78.9013 93.054 78.9756 93.3986 79.0796 93.6868C79.1717 93.9393 79.2875 94.1325 79.4272 94.2602C79.5312 94.3583 79.6589 94.4058 79.8223 94.4058C80.3423 94.4058 80.8087 94.3375 81.2128 94.2067C81.6287 94.0701 82.015 93.8948 82.3596 93.6838C82.7161 93.467 83.0578 93.2203 83.3787 92.953C83.658 92.7182 83.9402 92.4895 84.2225 92.2696L84.1185 90.8168L84.1155 90.8346Z" fill="white"/>
<path d="M103.115 88.5112C102.786 88.7162 102.42 88.9063 102.025 89.0698C101.597 89.248 101.175 89.3401 100.765 89.3401C100.581 89.3401 100.403 89.3045 100.236 89.2361C100.052 89.1589 99.8888 89.0341 99.7522 88.8588C99.6274 88.7013 99.5293 88.4993 99.458 88.2557C99.3897 88.0239 99.357 87.7536 99.357 87.4268C99.357 87.2366 99.3778 87.0138 99.4194 86.7434C99.461 86.4879 99.5234 86.17 99.6125 85.7748C99.6957 85.4005 99.7581 85.0974 99.7938 84.8716C99.8354 84.6072 99.8473 84.4646 99.8473 84.3903C99.8473 84.2863 99.8294 84.1942 99.7938 84.117C99.7581 84.0368 99.7106 83.9744 99.6541 83.9209C99.5917 83.8644 99.5175 83.8229 99.4313 83.7931C99.3392 83.7605 99.2501 83.7456 99.152 83.7456C98.8163 83.7456 98.5311 83.8318 98.2785 84.0071C97.9903 84.2091 97.7289 84.4616 97.5031 84.7587C97.2684 85.0648 97.0366 85.4599 96.8197 85.9353C96.588 86.4374 96.3919 86.8533 96.2285 87.1742L96.1037 87.4238C95.2243 89.251 95.2629 87.4238 95.2629 87.4238L95.2451 86.99C95.2272 86.577 95.2391 86.0927 95.2807 85.549C95.3194 85.0291 95.3372 84.628 95.3372 84.3576V84.3042C95.3372 84.3042 95.3372 84.2804 95.3372 84.2685C95.3431 83.8555 95.0787 83.7634 94.9212 83.7486C94.7786 83.7486 94.6627 83.7575 94.5706 83.7723C94.5201 83.7813 94.4815 83.7931 94.4577 83.811C94.4251 83.8318 94.3953 83.8704 94.3627 83.9209C94.333 83.9714 94.2795 84.0694 94.2171 84.2447V84.2566C94.119 84.4943 94.024 84.8063 93.9259 85.1836C93.8279 85.5698 93.709 86.0541 93.5664 86.6632C93.4298 87.2485 93.3139 87.8041 93.2277 88.3181C93.1386 88.8321 93.0613 89.349 92.996 89.8482C92.9306 90.3443 92.8801 90.8227 92.8415 91.2713C92.8029 91.714 92.785 92.1032 92.785 92.43C92.785 92.7212 92.8029 93.0064 92.8355 93.2797C92.8653 93.5234 92.9247 93.7432 93.0079 93.9274C93.0792 94.0849 93.1772 94.2037 93.305 94.2929C93.4208 94.3731 93.5932 94.4147 93.816 94.4147C93.8932 94.4147 93.9616 94.4028 94.021 94.3761C94.0685 94.3553 94.122 94.3107 94.1755 94.2424C94.2557 94.1443 94.3359 94.0106 94.4191 93.8442C94.5082 93.66 94.6063 93.4224 94.7073 93.1371L96.9029 87.0108C96.9029 87.0108 97.5566 84.6785 97.8061 87.0108L97.8566 87.406C97.9161 87.8784 97.9963 88.3567 98.0973 88.8231C98.1894 89.2569 98.332 89.6521 98.5192 89.9967C98.6945 90.3176 98.9262 90.5731 99.2233 90.7692C99.5056 90.9564 99.8948 91.0485 100.385 91.0485C100.667 91.0485 100.947 91.0069 101.214 90.9237C101.505 90.8346 101.79 90.7217 102.058 90.588C102.331 90.4543 102.593 90.3057 102.839 90.1512C103.017 90.0383 103.181 89.9314 103.335 89.8333L103.433 88.3032C103.326 88.3745 103.219 88.4458 103.112 88.5112H103.115Z" fill="white"/>
<path d="M113.888 91.1019C113.888 91.1019 113.888 91.1019 113.885 91.099C113.633 90.8583 113.223 91.3129 113.223 91.3129C113.152 91.402 113.083 91.4852 113.015 91.5684C112.593 92.0705 112.207 92.4954 111.862 92.8341C111.512 93.1757 111.188 93.455 110.897 93.66C110.608 93.865 110.335 94.0403 110.088 94.177L109.28 94.6256L109.42 93.7105C109.622 92.3973 109.824 91.1406 110.023 89.9789C110.109 89.4857 110.222 88.841 110.362 88.0388L111.048 84.1081C111.066 84.0338 111.069 83.9922 111.069 83.9714C111.069 83.8793 111.048 83.8674 111.033 83.8555C110.944 83.7991 110.822 83.7694 110.671 83.7694C110.519 83.7694 110.344 83.7991 110.163 83.8555C109.981 83.912 109.8 84.0011 109.628 84.117C109.459 84.2329 109.307 84.3755 109.182 84.5389C109.06 84.6993 108.98 84.8657 108.939 85.0558L108.009 89.4055C107.973 89.6758 107.902 90.0056 107.795 90.3919C107.682 90.79 107.533 91.1851 107.352 91.5625C107.162 91.9546 106.933 92.2963 106.669 92.5786C106.348 92.9232 105.974 93.0985 105.555 93.0985C105.275 93.0985 105.032 93.0212 104.836 92.8697C104.663 92.736 104.524 92.5607 104.423 92.3528C104.334 92.1686 104.271 91.9576 104.238 91.7288C104.209 91.5238 104.191 91.3099 104.191 91.0901C104.191 90.686 104.241 90.2225 104.336 89.7145L105.088 85.7837C105.106 85.6887 105.124 85.5966 105.145 85.5074C105.159 85.4094 105.186 85.2965 105.225 85.1628C105.252 85.0588 105.281 84.9578 105.311 84.8597C105.341 84.7439 105.361 84.6429 105.379 84.5478C105.406 84.3755 105.412 84.2358 105.403 84.12C105.35 83.707 105.041 83.6238 104.91 83.606C104.889 83.606 104.868 83.6119 104.847 83.6149C103.285 83.6149 102.898 86.2591 102.898 86.2591C102.78 86.6543 102.673 87.1415 102.578 87.7149L102.233 89.8066C102.144 90.3414 102.099 90.9445 102.099 91.5951C102.099 92.0497 102.171 92.4567 102.313 92.8103C102.456 93.1639 102.643 93.4639 102.875 93.7046C103.103 93.9423 103.371 94.1295 103.665 94.2542C103.897 94.3523 104.134 94.4147 104.372 94.4355C104.815 94.489 106.431 94.5038 107.896 92.4597L107.379 95.309C107.379 95.309 100.991 99.8339 102.245 103.658C102.251 103.684 102.257 103.708 102.266 103.735C102.39 104.112 102.86 105.108 104.363 105.259C104.372 105.259 104.381 105.259 104.39 105.259C104.44 105.265 104.491 105.268 104.541 105.271C104.616 105.274 104.69 105.277 104.764 105.277C105.198 105.277 105.599 105.209 105.956 105.072C106.315 104.935 106.624 104.757 106.874 104.54C107.135 104.314 107.376 104.035 107.593 103.711C107.816 103.381 107.997 103.046 108.131 102.713C108.27 102.371 108.392 101.988 108.496 101.581C108.6 101.171 108.674 100.799 108.713 100.482C108.754 100.149 108.799 99.7982 108.847 99.4298C108.858 99.2694 108.885 99.0495 108.933 98.7554C108.948 98.5979 108.965 98.4464 108.98 98.3038L109.129 96.0666L110.439 95.208C111.042 94.7979 111.268 94.6316 111.342 94.5662L111.354 94.5573C112.014 94.0314 112.174 93.9066 112.228 93.871C112.379 93.761 112.647 93.5293 113.024 93.1876C113.27 92.9559 113.514 92.7093 113.737 92.4567C113.755 92.436 113.77 92.4181 113.787 92.3973C113.88 92.2755 113.942 92.1596 113.989 92.0527C113.989 92.0527 113.989 92.0497 113.989 92.0467C114.278 91.4882 113.927 91.1376 113.885 91.099L113.888 91.1019ZM105.617 103.622C105.317 103.821 104.972 103.934 104.577 103.934C104.556 103.934 104.539 103.934 104.518 103.934C104.313 103.934 104.155 103.889 104.03 103.83C103.261 103.563 103.41 102.347 103.41 102.347C103.439 101.729 103.721 100.901 104.55 99.8369C104.987 99.1981 105.513 98.6336 106.006 98.176C106.253 97.9116 106.499 97.6888 106.749 97.5105L107.067 97.2847C107.168 97.2075 107.257 97.1421 107.334 97.0886C107.215 99.2159 106.838 102.612 105.62 103.625L105.617 103.622Z" fill="white"/>
<path d="M68.5145 90.5226L69.0374 89.7828L69.5514 90.9V91.7437C69.5514 91.8032 68.767 91.4734 68.767 91.4734" fill="white"/>
<path d="M70.0356 132.7C69.5365 132.7 69.0403 132.694 68.5382 132.682C51.7963 132.29 36.2071 125.4 24.6467 113.284C13.0834 101.168 6.93328 85.2727 7.32546 68.5308C7.7117 52.0473 14.4233 36.6335 26.2214 25.1206C38.0017 13.6285 53.5433 7.30017 69.9792 7.30017C70.4783 7.30017 70.9745 7.30611 71.4766 7.318C106.039 8.1291 133.497 36.9038 132.689 71.4691C132.303 87.9526 125.592 103.366 113.793 114.879C102.013 126.371 86.4715 132.7 70.0356 132.7ZM69.9792 8.7857C37.0242 8.7857 9.58347 35.6025 8.81099 68.5664C8.42773 84.9132 14.4322 100.428 25.7223 112.259C37.0093 124.09 52.2301 130.813 68.5739 131.196C69.0641 131.208 69.5484 131.214 70.0356 131.214C102.991 131.214 130.431 104.397 131.204 71.4335C131.994 37.6911 105.183 9.59383 71.441 8.80353C70.9507 8.79164 70.4664 8.7857 69.9792 8.7857Z" fill="white"/>
</svg>
