<svg width="67" height="65" viewBox="0 0 67 65" fill="none" xmlns="http://www.w3.org/2000/svg">
<path d="M28.9046 4.1431C30.3511 -0.308547 36.6489 -0.308546 38.0954 4.1431L42.6306 18.101C43.2774 20.0918 45.1326 21.4397 47.2259 21.4397L61.9021 21.4397C66.5829 21.4397 68.529 27.4294 64.7422 30.1806L52.8689 38.8071C51.1754 40.0375 50.4668 42.2184 51.1137 44.2093L55.6489 58.1672C57.0953 62.6188 52.0002 66.3206 48.2134 63.5694L36.3401 54.9429C34.6466 53.7125 32.3534 53.7125 30.6599 54.9429L18.7866 63.5694C14.9998 66.3206 9.90471 62.6188 11.3511 58.1672L15.8863 44.2093C16.5332 42.2184 15.8246 40.0375 14.1311 38.8071L2.25776 30.1806C-1.52903 27.4294 0.417124 21.4397 5.09786 21.4397L19.7741 21.4397C21.8674 21.4397 23.7226 20.0918 24.3694 18.101L28.9046 4.1431Z" fill="#FFE033"/>
</svg>
