<svg width="160" height="52" viewBox="0 0 160 52" fill="none" xmlns="http://www.w3.org/2000/svg">
<g filter="url(#filter0_d_2334_4593)">
<path d="M10.2725 23.0082H41.4154L31.2845 41.7694L25.8432 31.6953L20.4019 41.7694L10.2725 23.0082ZM23.8182 26.7596H16.9885L20.4034 33.0823L23.8182 26.7596ZM34.6994 26.7596H27.8697L31.2845 33.0823L34.6994 26.7596Z" fill="white"/>
<path d="M61.6788 41.7694H41.417L51.5479 23.0082L61.6788 41.7694ZM48.133 38.0166H54.9627L51.5479 31.6939L48.133 38.0166Z" fill="white"/>
<path d="M65.4314 23.0082L76.6884 32.3888V23.0082H80.4413V41.7694L69.1842 32.3888V41.7694H65.4314V23.0082Z" fill="white"/>
<path d="M95.5997 41.9558H90.9102L85.1512 31.2626H89.6733L85.1309 22.8202H98.0764C103.368 22.8202 107.645 27.0975 107.645 32.3887C107.645 37.68 103.368 41.9573 98.0764 41.9573V38.018C101.191 38.018 103.704 35.4845 103.704 32.3902C103.704 29.2959 101.19 26.7624 98.0764 26.7624H91.9416L96.3879 35.0169H91.8658L95.5997 41.9587V41.9558Z" fill="white"/>
<path d="M115.956 31.4506L111.398 23.0082H126.406V26.7596H118.114L122.653 35.202H115.149V38.0166H124.154L126.405 41.7694H111.396V31.4506H115.955H115.956Z" fill="white"/>
<path d="M134.719 41.7694H130.966V31.4506H135.525L130.966 23.0082H149.727V25.8228C149.727 30.3813 146.463 34.1909 142.147 35.0344L145.787 41.7694H141.097L137.551 35.2034H134.717V41.7694H134.719ZM145.9 26.761H137.684L140.216 31.452H140.347C143.142 31.452 145.45 29.4256 145.9 26.761Z" fill="white"/>
<path d="M52.8965 10.1442H54.1698L58.1688 15.4165V10.1442H59.8981V18.5517H58.6248L54.6258 13.2662V18.5517H52.8965V10.1442Z" fill="white"/>
<path d="M32.2705 10.1442H35.1886C37.0868 10.1442 38.143 11.1771 38.143 12.5466C38.143 13.2196 37.7949 13.9757 37.0737 14.3006C37.9391 14.5643 38.5277 15.3218 38.5277 16.2105C38.5277 17.7358 37.5661 18.5531 35.3444 18.5531H32.2705V10.1442ZM35.1288 11.585H33.9998V13.7106H35.1288C36.0656 13.7106 36.4138 13.3143 36.4138 12.6413C36.4138 11.9682 36.0656 11.5836 35.1288 11.5836V11.585ZM33.9998 15.1529V17.1109H35.4887C36.4021 17.1109 36.7372 16.751 36.7372 16.1377C36.7372 15.5243 36.4007 15.1529 35.4887 15.1529H33.9998Z" fill="white"/>
<path d="M47.26 17.3032H43.6325L43.1517 18.5517H41.3496L44.7499 10.1442H46.1426L49.5414 18.5517H47.7393L47.2586 17.3032H47.26ZM44.1846 15.8623H46.7064L45.4448 12.5961L44.1832 15.8623H44.1846Z" fill="white"/>
<path d="M71.0663 10.1442L67.9793 14.4929L71.5704 18.5531H69.4084L66.2019 14.8542V18.5531H64.4727V10.1442H66.2019V14.2758L69.0486 10.1442H71.0663Z" fill="white"/>
<path d="M74.5744 12.2814C74.5744 10.9236 75.536 10 77.2769 10C78.0811 10 78.91 10.2156 79.535 10.5886L79.0062 11.958C78.5735 11.6695 77.9966 11.4889 77.4444 11.4889C76.6883 11.4889 76.327 11.7657 76.327 12.1984C76.327 12.666 76.6388 12.9487 77.781 13.4717C79.2524 14.1447 79.9546 14.8892 79.9546 16.1508C79.9546 17.7009 78.8969 18.6974 76.9156 18.6974C76.0386 18.6974 75.1018 18.4453 74.3938 18.0126L74.9226 16.6199C75.4631 16.9928 76.1959 17.2085 76.8442 17.2085C77.6848 17.2085 78.202 16.8719 78.202 16.2892C78.202 15.67 77.7635 15.3218 76.7306 14.8717C75.061 14.1447 74.5744 13.3697 74.5744 12.2829V12.2814Z" fill="white"/>
<path d="M85.3841 11.6098H83.1377V10.1442H89.3599V11.6098H87.1134V18.5517H85.3841V11.6098Z" fill="white"/>
<path d="M97.1073 10C99.6291 10 101.612 11.8021 101.612 14.3487C101.612 16.8952 99.6306 18.6974 97.1073 18.6974C94.5841 18.6974 92.6028 16.8952 92.6028 14.3487C92.6028 11.8021 94.5841 10 97.1073 10ZM97.1073 17.207C98.6327 17.207 99.8579 16.0415 99.8579 14.3487C99.8579 12.6558 98.6327 11.4904 97.1073 11.4904C95.582 11.4904 94.3568 12.6558 94.3568 14.3487C94.3568 16.0415 95.582 17.207 97.1073 17.207Z" fill="white"/>
<path d="M113.418 15.7414L115.111 10.1442H116.913L114.115 18.5517H112.722L110.824 12.8583L108.925 18.5517H107.533L104.734 10.1442H106.536L108.229 15.7414L110.127 10.1442H111.52L113.418 15.7414Z" fill="white"/>
<path d="M120.637 10.1442H121.91L125.909 15.4165V10.1442H127.638V18.5517H126.365L122.366 13.2662V18.5517H120.637V10.1442Z" fill="white"/>
</g>
<defs>
<filter id="filter0_d_2334_4593" x="0.272461" y="0" width="159.455" height="51.9588" filterUnits="userSpaceOnUse" color-interpolation-filters="sRGB">
<feFlood flood-opacity="0" result="BackgroundImageFix"/>
<feColorMatrix in="SourceAlpha" type="matrix" values="0 0 0 0 0 0 0 0 0 0 0 0 0 0 0 0 0 0 127 0" result="hardAlpha"/>
<feOffset/>
<feGaussianBlur stdDeviation="5"/>
<feComposite in2="hardAlpha" operator="out"/>
<feColorMatrix type="matrix" values="0 0 0 0 0 0 0 0 0 0 0 0 0 0 0 0 0 0 0.25 0"/>
<feBlend mode="normal" in2="BackgroundImageFix" result="effect1_dropShadow_2334_4593"/>
<feBlend mode="normal" in="SourceGraphic" in2="effect1_dropShadow_2334_4593" result="shape"/>
</filter>
</defs>
</svg>
