<svg width="33" height="33" viewBox="0 0 33 33" fill="none" xmlns="http://www.w3.org/2000/svg">
<circle opacity="0.1" cx="16.5" cy="16.5" r="16.5" fill="white"/>
<path fill-rule="evenodd" clip-rule="evenodd" d="M12.6291 11.3033C12.263 10.9372 11.6694 10.9372 11.3033 11.3033C10.9372 11.6694 10.9372 12.263 11.3033 12.6292L15.2808 16.6066L11.3033 20.5841C10.9372 20.9502 10.9372 21.5438 11.3033 21.9099C11.6694 22.276 12.263 22.276 12.6291 21.9099L16.6066 17.9325L20.5841 21.9099C20.9502 22.276 21.5438 22.276 21.9099 21.9099C22.276 21.5438 22.276 20.9502 21.9099 20.5841L17.9324 16.6066L21.9099 12.6292C22.276 12.263 22.276 11.6694 21.9099 11.3033C21.5438 10.9372 20.9502 10.9372 20.5841 11.3033L16.6066 15.2808L12.6291 11.3033Z" fill="white"/>
</svg>
